<?xml version="1.0" encoding="UTF-8"?>
<svg width="27px" height="50px" viewBox="0 0 27 50" version="1.1" xmlns="http://www.w3.org/2000/svg" xmlns:xlink="http://www.w3.org/1999/xlink">
    <title>Mobile</title>
    <g id="Page-1" stroke="none" stroke-width="1" fill="none" fill-rule="evenodd">
        <path d="M6.944,0 L6.94444444,3.16666667 C6.94444444,3.67950251 7.33048463,4.10217383 7.82782332,4.15993894 L7.94444444,4.16666667 L18.4444444,4.16666667 C18.9967292,4.16666667 19.4444444,3.71895142 19.4444444,3.16666667 L19.444,0 L23.3888889,0 C25.0457431,-4.4408921e-16 26.3888889,1.34314575 26.3888889,3 L26.3888889,47 C26.3888889,48.6568542 25.0457431,50 23.3888889,50 L3,50 C1.34314575,50 0,48.6568542 0,47 L0,3 C0,1.34314575 1.34314575,0 3,0 L6.944,0 Z M20.3333333,45.8333333 L6.05555556,45.8333333 C5.77941318,45.8333333 5.55555556,46.057191 5.55555556,46.3333333 L5.55555556,46.7222222 C5.55555556,46.9983646 5.77941318,47.2222222 6.05555556,47.2222222 L20.3333333,47.2222222 C20.6094757,47.2222222 20.8333333,46.9983646 20.8333333,46.7222222 L20.8333333,46.3333333 C20.8333333,46.057191 20.6094757,45.8333333 20.3333333,45.8333333 Z" id="Mobile" fill="#FFFFFF"></path>
    </g>
</svg>