<?xml version="1.0" encoding="UTF-8"?>
<svg width="88px" height="50px" viewBox="0 0 88 50" version="1.1" xmlns="http://www.w3.org/2000/svg" xmlns:xlink="http://www.w3.org/1999/xlink">
    <title>Virtual</title>
    <g id="Page-1" stroke="none" stroke-width="1" fill="none" fill-rule="evenodd">
        <path d="M69,0 C79.4934102,0 88,8.50658975 88,19 L88,31 C88,41.4934102 79.4934102,50 69,50 L56.4213707,50.0002967 C56.3862539,49.9997751 56.3512251,49.9983243 56.3166299,49.9956236 C56.2954289,49.9942278 56.2743182,49.9925016 56.2533093,49.990683 C56.2255893,49.9879191 56.1979608,49.9845782 56.1703284,49.980601 L56.1063791,49.9705012 C56.0830032,49.9664023 56.0597173,49.9618908 56.0362634,49.9571539 C56.0001275,49.949553 55.9643508,49.9409765 55.9291983,49.9310905 C55.9195178,49.9284727 55.9098586,49.9257828 55.9000862,49.9234486 C55.8710602,49.9151657 55.8423038,49.9062435 55.8137763,49.89613 C55.7930334,49.8891615 55.772408,49.8818558 55.7521352,49.8748749 C55.7244672,49.8645722 55.6970888,49.8536745 55.6700156,49.8421974 L55.6335003,49.8257495 L55.6068505,49.814115 C55.501968,49.7652858 55.4020252,49.7076287 55.3080529,49.6422546 C55.1499391,49.5325317 55.0066503,49.3993061 54.8842992,49.2445441 C54.8712834,49.2281913 54.8585183,49.2116299 54.8459233,49.1953203 L54.7910573,49.1174619 C54.782738,49.1051356 54.7745525,49.0927116 54.7666075,49.0804958 C54.7540224,49.0608369 54.741747,49.0409013 54.729602,49.0205266 C54.7127915,48.9922484 54.6966584,48.9635206 54.6814987,48.9342675 L54.6662877,48.9055836 L54.616,48.797 L54.6089903,48.7814623 L53.465,46.084 L49.5148702,36.8680304 C49.158133,36.0356437 48.6354425,35.3253629 48.0019806,34.7592607 C47.5899024,34.3923642 47.1268566,34.0802159 46.6235882,33.8355425 C46.2912744,33.6740344 45.9443219,33.5432834 45.5876444,33.4451728 C45.5501953,33.4343342 45.5127714,33.4244068 45.4753153,33.4148575 C45.1679106,33.3372133 44.8535615,33.2830977 44.5353919,33.2543167 C44.4990261,33.2505865 44.4622959,33.2476315 44.4255768,33.2450196 L44.5353919,33.2543167 C44.4824774,33.2495301 44.4294571,33.2454443 44.3763449,33.2420646 L44.4255768,33.2450196 C44.3501358,33.2396533 44.2747416,33.2357352 44.1994322,33.23325 L44.3763449,33.2420646 C44.3048134,33.2375129 44.2331149,33.2342421 44.161283,33.2322656 L44.1994322,33.23325 C44.0662041,33.2288536 43.9332412,33.2289419 43.8007532,33.233431 L43.8385484,33.2321179 C43.7669326,33.2340241 43.6952343,33.2372248 43.6234862,33.2417332 L43.8007532,33.233431 C43.7252319,33.23599 43.6498649,33.2399788 43.574691,33.2453821 L43.6234862,33.2417332 C43.570426,33.2450673 43.5173386,33.2491166 43.464237,33.2538863 L43.574691,33.2453821 C43.2189388,33.2709525 42.8675126,33.3281994 42.5245298,33.4154758 C42.4872286,33.4244068 42.4498047,33.4343342 42.4124177,33.4446416 C42.1963744,33.5045823 41.9839591,33.5759603 41.7761552,33.6588885 C41.7383954,33.6739348 41.7003782,33.6895698 41.6624343,33.7056252 L41.7761552,33.6588885 C41.6400984,33.7131846 41.5060184,33.772432 41.3742086,33.8365135 L41.1539314,33.9492484 C41.144269,33.9544463 41.1346203,33.959671 41.1249853,33.9649222 C41.0571467,34.0022237 40.9900173,34.0405739 40.9237305,34.0801575 L41.1249853,33.9649222 C41.032677,34.0152322 40.9416308,34.0679868 40.8519548,34.1231428 C39.9762326,34.663458 39.2524225,35.4203696 38.752333,36.3225626 C38.7406831,36.3427273 38.7294175,36.3633904 38.7182608,36.3841424 L38.752333,36.3225626 C38.7097076,36.3994616 38.6687075,36.4774161 38.6293773,36.5563815 L38.7182608,36.3841424 C38.6759741,36.4627975 38.6352518,36.5427302 38.5961501,36.6239179 L38.6293773,36.5563815 C38.5784642,36.6586027 38.5303495,36.7625179 38.4851298,36.8680304 L38,38 L34.535,46.084 L33.3910097,48.7814623 L33.384,48.797 L33.3337123,48.9055836 L33.3185013,48.9342675 C33.3033416,48.9635206 33.2872085,48.9922484 33.270398,49.0205266 C33.258253,49.0409013 33.2459776,49.0608369 33.2333925,49.0804958 C33.2254475,49.0927116 33.217262,49.1051356 33.2089427,49.1174619 L33.1540767,49.1953203 C33.1414817,49.2116299 33.1287166,49.2281913 33.1157008,49.2445441 C32.9933497,49.3993061 32.8500609,49.5325317 32.6919471,49.6422546 C32.5979748,49.7076287 32.498032,49.7652858 32.3931495,49.814115 L32.3664997,49.8257495 L32.3299844,49.8421974 C32.3029112,49.8536745 32.2755328,49.8645722 32.2478648,49.8748749 C32.227592,49.8818558 32.2069666,49.8891615 32.1862237,49.89613 C32.1576962,49.9062435 32.1289398,49.9151657 32.0999138,49.9234486 C32.0901414,49.9257828 32.0804822,49.9284727 32.0708017,49.9310905 C32.0356492,49.9409765 31.9998725,49.949553 31.9637366,49.9571539 C31.9402827,49.9618908 31.9169968,49.9664023 31.8936209,49.9705012 L31.8296716,49.980601 C31.8020392,49.9845782 31.7744107,49.9879191 31.7466907,49.990683 C31.7256818,49.9925016 31.7045711,49.9942278 31.6833701,49.9956236 C31.6487749,49.9983243 31.6137461,49.9997751 31.5786293,50.0002967 L19,50 C8.50658975,50 3.55271368e-15,41.4934102 3.55271368e-15,31 L0,19 C0,8.50658975 8.50658975,0 19,0 L69,0 Z M23,15 C17.4771525,15 13,19.4771525 13,25 C13,30.5228475 17.4771525,35 23,35 C28.5228475,35 33,30.5228475 33,25 C33,19.4771525 28.5228475,15 23,15 Z M65,15 C59.4771525,15 55,19.4771525 55,25 C55,30.5228475 59.4771525,35 65,35 C70.5228475,35 75,30.5228475 75,25 C75,19.4771525 70.5228475,15 65,15 Z" id="Virtual" fill="#FFFFFF"></path>
    </g>
</svg>