<?xml version="1.0" encoding="UTF-8"?>
<svg width="41px" height="50px" viewBox="0 0 41 50" version="1.1" xmlns="http://www.w3.org/2000/svg" xmlns:xlink="http://www.w3.org/1999/xlink">
    <title>apple</title>
    <g id="Page-1" stroke="none" stroke-width="1" fill="none" fill-rule="evenodd">
        <path d="M39.4089409,17.0467047 C39.1189119,17.2717272 33.9983998,20.1570157 33.9983998,26.5726573 C33.9983998,33.9933993 40.5140514,36.6186619 40.7090709,36.6836684 C40.6790679,36.8436844 39.6739674,40.2790279 37.2737274,43.7793779 C35.1335134,46.859686 32.8982898,49.9349935 29.4979498,49.9349935 C26.0976098,49.9349935 25.2225223,47.959796 21.2971297,47.959796 C17.4717472,47.959796 16.1116112,50 13.0013001,50 C9.8909891,50 7.72077208,47.149715 5.22552255,43.6493649 C2.33523352,39.5389539 0,33.1533153 0,27.0927093 C0,17.3717372 6.32063206,12.2162216 12.5412541,12.2162216 C15.8465847,12.2162216 18.6018602,14.3864386 20.6770677,14.3864386 C22.6522652,14.3864386 25.7325733,12.0862086 29.4929493,12.0862086 C30.9180918,12.0862086 36.0386039,12.2162216 39.4089409,17.0467047 Z M27.7077708,7.97079708 C29.2629263,6.12561256 30.3630363,3.56535654 30.3630363,1.00510051 C30.3630363,0.650065007 30.3330333,0.290029003 30.2680268,0 C27.7377738,0.095009501 24.7274727,1.68516852 22.9122912,3.79037904 C21.4871487,5.41054105 20.1570157,7.97079708 20.1570157,10.5660566 C20.1570157,10.9560956 20.2220222,11.3461346 20.2520252,11.4711471 C20.4120412,11.5011501 20.6720672,11.5361536 20.9320932,11.5361536 C23.2023202,11.5361536 26.0576058,10.0160016 27.7077708,7.97079708 Z" id="apple" fill="#FFFFFF" fill-rule="nonzero"></path>
    </g>
</svg>