<?xml version="1.0" encoding="UTF-8"?>
<svg width="57px" height="50px" viewBox="0 0 57 50" version="1.1" xmlns="http://www.w3.org/2000/svg" xmlns:xlink="http://www.w3.org/1999/xlink">
    <title>bsky</title>
    <g id="Page-1" stroke="none" stroke-width="1" fill="none" fill-rule="evenodd">
        <path d="M12.3094041,3.36561498 C18.819931,8.25330767 25.8227421,18.1635132 28.3938206,23.4819056 C30.9650949,18.1639048 37.9675144,8.25320976 44.4782371,3.36561498 C49.1758893,-0.161148881 56.7872999,-2.88995807 56.7872999,5.79325746 C56.7872999,7.52741369 55.7930386,20.3610706 55.2098953,22.4445645 C53.1828946,29.6882306 45.7965757,31.5357649 39.2263246,30.4175514 C50.7109975,32.3721977 53.6325886,38.8466942 47.3230679,45.3211908 C35.3400406,57.6175255 30.099975,42.2359945 28.7566697,38.2946858 C28.5105276,37.5721501 28.395348,37.2341404 28.3936542,37.5215608 C28.3919506,37.2341306 28.2767807,37.5721491 28.0306386,38.2946858 C26.6879208,42.2359945 21.4479531,57.6179172 9.46424041,45.3211908 C3.15462185,38.8466942 6.07611505,32.371806 17.5609837,30.4175514 C10.9905368,31.5357649 3.60412,29.6882208 1.57741302,22.4445645 C0.994250122,20.3608747 8.38389997e-06,7.52721787 8.38389997e-06,5.79325746 C8.38389997e-06,-2.88995807 7.61161483,-0.161148881 12.3090712,3.36561498 L12.3094041,3.36561498 Z" id="bsky" fill="#FFFFFF" fill-rule="nonzero"></path>
    </g>
</svg>