<?xml version="1.0" encoding="UTF-8"?>
<svg width="66px" height="50px" viewBox="0 0 66 50" version="1.1" xmlns="http://www.w3.org/2000/svg" xmlns:xlink="http://www.w3.org/1999/xlink">
    <title>Discord-Symbol-White</title>
    <g id="Page-1" stroke="none" stroke-width="1" fill="none" fill-rule="evenodd">
        <path d="M42.2656294,2.00175236e-08 C41.621046,1.1444271 41.0422439,2.32833335 40.5160981,3.53854169 C35.5174002,2.78875002 30.4266189,2.78875002 25.414796,3.53854169 C24.9017752,2.32833335 24.309796,1.1444271 23.6652648,2.00175236e-08 C18.9691189,0.802447937 14.3913585,2.20994794 10.050421,4.19625002 C1.4474002,16.9429167 -0.880933133,29.3606771 0.276671033,41.6074479 C5.31479603,45.3301563 10.9580773,48.1715104 16.9696398,49.9868229 C18.3245356,48.1715104 19.5216189,46.2378125 20.5476606,44.2252084 C18.6007856,43.5017188 16.7196919,42.5940625 14.9175564,41.5417188 C15.3910981,41.1996875 15.8515148,40.8445313 16.2987544,40.5025 C26.8617752,45.4748959 39.095421,45.4748959 49.6715669,40.5025 C50.1188064,40.8708334 50.5792231,41.2259896 51.0527648,41.5417188 C49.2506294,42.6071875 47.3695356,43.5017188 45.4095356,44.2383854 C46.4355773,46.2509896 47.6326085,48.1846875 48.9875564,50 C54.9989627,48.1846875 60.6421919,45.3564584 65.6807335,41.6338021 C67.0484419,27.4269792 63.3390669,15.1144271 55.8802127,4.2094271 C51.5526606,2.22312502 46.9749002,0.815572937 42.2787544,0.0263021034 L42.2656294,2.00175236e-08 Z M22.0209419,34.07 C18.7718273,34.07 16.0751606,31.1233854 16.0751606,27.4796354 C16.0751606,23.8358854 18.6665669,20.8760938 22.0078169,20.8760938 C25.3490669,20.8760938 28.0062023,23.8490104 27.9535981,27.4796354 C27.9009939,31.1102604 25.3358898,34.07 22.0209419,34.07 Z M43.9362544,34.07 C40.6739106,34.07 38.0035981,31.1233854 38.0035981,27.4796354 C38.0035981,23.8358854 40.5950044,20.8760938 43.9362544,20.8760938 C47.2775044,20.8760938 49.9215148,23.8490104 49.8688585,27.4796354 C49.8162544,31.1102604 47.2511502,34.07 43.9362544,34.07 L43.9362544,34.07 Z" id="Discord-Symbol-White" fill="#FFFFFF" fill-rule="nonzero"></path>
    </g>
</svg>