<?xml version="1.0" encoding="UTF-8"?>
<svg width="51px" height="50px" viewBox="0 0 51 50" version="1.1" xmlns="http://www.w3.org/2000/svg" xmlns:xlink="http://www.w3.org/1999/xlink">
    <title>github</title>
    <g id="Page-1" stroke="none" stroke-width="1" fill="none" fill-rule="evenodd">
        <path d="M25.4446937,2.00197974e-08 C11.37444,2.00197974e-08 8.38389997e-06,11.4582854 8.38389997e-06,25.633747 C8.38389997e-06,36.9649496 7.28799874,46.5565762 17.3983731,49.9513536 C18.6624303,50.2065609 19.1254492,49.3997935 19.1254492,48.7211505 C19.1254492,48.1268821 19.0837828,46.0899115 19.0837828,43.9675245 C12.0056873,45.4956431 10.5317352,40.9118081 10.5317352,40.9118081 C9.39423994,37.9409872 7.70883032,37.1774487 7.70883032,37.1774487 C5.39217334,35.6071428 7.87757961,35.6071428 7.87757961,35.6071428 C10.4473605,35.7769338 11.7957924,38.2383818 11.7957924,38.2383818 C14.070262,42.1425321 17.7353509,41.0394117 19.2098239,40.3602479 C19.4202397,38.7050465 20.094716,37.559218 20.8108589,36.9227623 C15.16557,36.3284939 9.22601147,34.1217323 9.22601147,24.2754193 C9.22601147,21.4743894 10.2364239,19.1827323 11.8374589,17.4004481 C11.5848558,16.7639924 10.6999636,14.1322326 12.0905828,10.6098515 C12.0905828,10.6098515 14.2390113,9.93068766 19.0832619,13.2410905 C21.1572579,12.6799796 23.2961363,12.394539 25.4446937,12.3921357 C27.5931222,12.3921357 29.7832172,12.6895303 31.8056046,13.2410905 C36.650376,9.93068766 38.7988045,10.6098515 38.7988045,10.6098515 C40.1894237,14.1322326 39.3040107,16.7639924 39.0514076,17.4004481 C40.6946299,19.1827323 41.6633758,21.4743894 41.6633758,24.2754193 C41.6633758,34.1217323 35.7238173,36.2857858 30.0363411,36.9227623 C30.9634206,37.7290089 31.7634172,39.2566067 31.7634172,41.6758674 C31.7634172,45.113353 31.7217507,47.8721957 31.7217507,48.7206296 C31.7217507,49.3997935 32.1852905,50.2065609 33.4488269,49.9518745 C43.5592012,46.5560553 50.8473053,36.9649496 50.8473053,25.633747 C50.8888581,11.4582854 39.47276,2.00197974e-08 25.4446937,2.00197974e-08 Z" id="github" fill="#FFFFFF"></path>
    </g>
</svg>