<?xml version="1.0" encoding="UTF-8"?>
<svg width="42px" height="50px" viewBox="0 0 42 50" version="1.1" xmlns="http://www.w3.org/2000/svg" xmlns:xlink="http://www.w3.org/1999/xlink">
    <title>linux</title>
    <g id="Page-1" stroke="none" stroke-width="1" fill="none" fill-rule="evenodd">
        <path d="M21.7036488,-0.000276464599 C29.6028422,0.0108164702 29.1586875,8.33492958 29.1092009,12.8236905 C29.0770842,15.7649044 30.7033785,17.7560234 32.3663359,19.8538094 C33.8520977,21.6094448 35.7971691,24.1758083 36.9110533,27.1216852 C37.8191808,29.5214616 38.1718234,32.1775887 37.2724391,34.8448488 C37.4070262,34.8955594 37.5417298,34.9596762 37.6745682,35.038365 C37.806882,35.1171122 37.938613,35.2114805 38.0668466,35.3233935 C38.7179239,35.8777709 38.920125,36.7276103 39.1008762,37.5156645 C39.2820937,38.3043015 39.4506044,39.0445594 39.8043544,39.4438324 C40.8815754,40.6399027 41.3496283,41.5328753 41.3042802,42.3296726 C41.2582327,43.1271111 40.6689407,43.676126 39.942089,44.114452 C38.4878027,44.9911039 36.2955901,45.6550045 34.9747834,47.2567595 L34.783,47.0997064 L34.9729764,47.259091 C33.659784,48.8212715 32.0521166,49.756679 30.515731,49.9589072 L30.2603895,49.9858049 C28.649833,50.1128728 27.1390073,49.3691176 26.3259477,47.7428816 C26.2140346,47.5289646 26.1347046,47.3098016 26.0799139,47.0824783 C23.9821278,47.1990544 22.1582955,46.5625491 20.6981804,46.6803492 C18.5461864,46.7986156 17.2026474,47.3173791 15.9785988,47.3232079 C15.5053001,48.3631245 14.5843492,49.0392657 13.4488985,49.2980062 C11.883865,49.6553701 9.92188998,49.2962576 7.98672748,48.2843774 L8.086,48.0917064 L7.98497884,48.2837945 C6.17746713,47.3255394 3.88383328,47.4129714 2.18998322,47.059746 C1.34305819,46.8825504 0.594057041,46.5695437 0.229173993,45.8595955 C-0.134543295,45.1507548 -0.0680949442,44.1744304 0.448336974,42.7621115 C0.609794808,42.2596104 0.487972832,41.5176621 0.367899497,40.7331053 C0.31019435,40.35604 0.253072084,39.9642862 0.253072084,39.5778366 C0.253072084,39.1599114 0.319520434,38.7478151 0.524111409,38.3660285 C0.96185449,37.5266809 1.67821434,37.1816741 2.33104024,36.9472979 C2.98386614,36.7136212 3.57723825,36.5556607 3.99399765,36.1394259 C4.43990105,35.6678757 4.8403398,34.9673119 5.38183557,34.3885118 C5.4546956,34.3115716 5.53047003,34.2363218 5.61032463,34.1646275 C5.35560595,32.4812693 5.6318912,30.7029599 6.21243995,28.9583992 C7.44290019,25.2611897 10.0413804,21.7097002 11.8861965,19.5157389 C13.4570588,17.2833075 13.9198657,15.4833732 14.0813236,13.1996483 C14.2124716,10.0771587 11.8710416,0.751074411 20.6981804,0.0405433639 C21.0473257,0.012565111 21.3824818,-0.000841135126 21.7036488,-0.000276464599 Z M29.8370435,34.0433884 C29.8049851,34.0591262 29.772985,34.0760297 29.7403437,34.0935161 C29.0454921,34.4741369 28.6532137,35.150278 28.403741,36.1499177 C28.1549094,37.1495574 28.0714992,38.4447756 27.9969488,39.9275647 C27.9258374,41.0881376 27.3954164,42.512697 27.0264532,43.8993692 C26.6573607,45.2865659 26.4750484,46.6009609 26.9134327,47.4344797 C27.622798,48.8579316 28.8200923,49.4338173 30.207872,49.3242358 C31.5956516,49.2146543 33.1717598,48.3700608 34.4646466,46.8318398 C35.9526816,45.0289911 38.2836198,44.3388609 39.598656,43.5455608 C40.2567278,43.1492023 40.6128676,42.783678 40.6408459,42.2917854 C40.669407,41.7992516 40.3389139,41.0286838 39.3106548,39.8879872 C38.7743467,39.2840649 38.6321822,38.4395297 38.4537625,37.6636578 C38.2754012,36.888427 38.0696444,36.1959652 37.6371473,35.8293336 C37.0706459,35.3344682 36.520407,35.2965227 35.8635009,35.3123188 C35.7218027,35.315816 35.5760827,35.3233352 35.4263407,35.3292223 C34.6779224,36.1901364 32.9053836,37.245208 31.6754479,36.9210683 C30.551713,36.6378468 29.9157907,35.3274736 29.8370435,34.0433884 Z M7.26628747,34.1401465 L7.24588666,34.1401465 C6.65309743,34.1442267 6.25965325,34.4222606 5.86679195,34.8419344 C5.40107061,35.3391312 5.00296339,36.0403362 4.47312523,36.5993184 C3.89374224,37.1799254 3.16805631,37.3523997 2.55544914,37.5721456 C1.94342486,37.7913085 1.45030816,38.0232949 1.11398624,38.6714577 C0.848775718,39.163467 0.906480865,39.8635062 1.02422268,40.632267 C1.14196449,41.4016689 1.3220745,42.2211986 1.07901342,42.9701997 L1.07493326,42.9819156 C0.584148076,44.3207916 0.589393999,45.1059313 0.820214585,45.5564978 C1.05103517,46.0064813 1.55464372,46.2489595 2.32579432,46.4098345 C3.86867839,46.7321673 6.2730595,46.6255002 8.29448827,47.6962512 C10.1229837,48.6522332 11.9526448,48.9593528 13.3014298,48.6510091 C14.6513805,48.3426654 15.5303639,47.4939918 15.6492715,45.9353699 C15.7413666,45.0138362 15.038413,43.8195146 14.1297026,42.6303805 C13.2209923,41.4407219 12.1484926,40.2743785 11.6408039,39.2141193 L9.73070525,35.7331583 C9.06971902,34.8366885 8.38366895,34.2865078 7.59678059,34.1676002 C7.48020453,34.1494726 7.37004016,34.1407877 7.26628747,34.1401465 Z M25.2685446,15.1325376 C24.8302769,15.7573852 24.0602921,16.2936351 23.0909622,16.5967328 C22.6304285,16.746533 22.1466961,17.1300682 21.5410252,17.4762991 C20.9837917,17.7951346 20.3146452,18.0749172 19.4566454,18.0749172 C19.3802881,18.0749172 19.3021821,18.0725856 19.2223275,18.0679226 C18.3899745,18.0195435 17.8391527,17.7135314 17.3979123,17.3591402 C16.9578377,17.0053319 16.6180185,16.6159678 16.1657034,16.3495916 C16.0100744,16.2609938 15.6632606,16.0266759 15.5618395,15.953233 C15.3659917,19.6475281 12.8998253,24.2831749 11.7206585,26.9556809 C10.9110378,28.8821002 10.4289958,30.9414162 10.3718735,32.9605717 C8.24377768,30.1230523 9.79831936,26.4882692 10.6295066,24.9132685 C11.557452,23.1902744 11.7020063,22.7169756 11.4770145,22.8825136 C10.6399985,24.2476192 9.32851786,26.4229284 8.81791475,28.65944 C8.55153846,29.8246176 8.5031594,31.0049502 8.8488074,32.0966849 C9.19387252,33.1877785 9.93063318,34.1927223 11.2491083,35.0128349 L11.5788064,35.2197335 C13.193902,36.2510388 14.3094119,37.2759404 14.9853709,38.1906981 C15.7063938,39.1670225 15.9325513,40.021525 15.7075595,40.6271376 C15.5944807,40.9302936 15.3671574,41.1657773 15.043076,41.313246 C14.7825285,41.4309295 14.4601957,41.493356 14.0813236,41.4927731 C14.2736741,41.735193 14.4677732,41.9806439 14.6566264,42.2277268 C14.9521467,42.6147593 15.2395067,43.0070378 15.4895623,43.4028135 C19.1838574,45.9243535 23.5344758,44.9556065 26.6692058,42.7191532 C26.9804639,41.6489267 27.2882247,40.6382706 27.3342722,39.8915427 C27.4088809,38.4046152 27.4875697,37.0832256 27.7597748,35.9897422 C28.0325628,34.8950348 28.523348,34.003228 29.4215665,33.511277 C29.5661208,33.4325882 29.7095093,33.3696371 29.8528979,33.3195094 C29.8628068,33.2274143 29.8762131,33.1359021 29.8925337,33.0467214 C30.1501668,31.3388823 31.6749816,31.2555887 33.5885775,32.0972095 C35.4339764,32.931894 36.1264382,33.6610772 35.8134315,34.6496422 L35.8472386,34.6490593 C35.9684776,34.6462032 36.093214,34.645562 36.219699,34.6502251 C36.6032343,33.4028613 35.8052712,32.488905 33.6468655,31.4380302 C33.5017284,31.369192 33.3583398,31.3056581 33.2178657,31.2473701 C33.5058668,30.0763636 33.4486862,28.8895611 33.1800367,27.7611632 C32.5912694,25.2862535 30.9726692,23.0940409 29.7404603,22.0034719 C29.5125541,21.9941458 29.5347035,22.1934908 29.9934303,22.6388114 C31.1300468,23.6844986 33.6148654,27.4388304 32.2701606,30.9250373 C31.8860425,30.8265888 31.5269883,30.7793172 31.2011582,30.7892845 C30.6869995,27.9477431 29.4968163,25.5894096 28.8981983,24.4796055 C27.7725982,22.3876483 26.0216259,18.1005639 25.2685446,15.1325376 Z M19.4280843,10.9176444 C19.0661156,10.9188378 18.7426171,10.9829546 18.4529256,11.08321 C17.6106636,11.3729015 17.0516814,11.9773484 16.7013704,12.3090073 C16.6314247,12.3760385 16.5428269,12.4354923 16.328327,12.5928699 C16.1120784,12.7508305 15.787997,12.9886456 15.3216928,13.3383738 C14.9072649,13.649049 14.7726196,14.0535679 14.9160081,14.5274496 C15.0588138,15.0013312 15.5157919,15.5480729 16.3516422,16.0207888 C16.8733201,16.3273838 17.2277113,16.7383144 17.6345617,17.0653102 C17.8379869,17.2285167 18.051904,17.3742368 18.309537,17.4844012 C18.5671701,17.5945655 18.8679363,17.6691742 19.244477,17.6913237 C20.1281235,17.7426171 20.7786179,17.4774066 21.3527549,17.1486621 C21.9280577,16.8205005 22.4152874,16.418896 22.9743278,16.2376203 C24.122602,15.878566 24.9398584,15.1575431 25.1956845,14.4726588 C25.3239182,14.1299252 25.319838,13.804678 25.1671234,13.5044947 C25.0138259,13.2043113 24.7008192,12.9187 24.1680666,12.7001199 C23.0570968,12.2244896 22.5762206,12.1906826 21.9577846,11.7884952 C20.9511504,11.1414981 20.1193803,10.9147577 19.4280843,10.9176444 Z M24.0084548,13.5365776 C24.2770378,13.5678812 24.078352,13.8548209 23.7022229,14.183081 C23.3260932,14.5113411 22.7376621,14.9468855 22.2597166,15.1960132 C21.3480482,15.671218 20.2831696,16.2475292 19.1500504,16.2475292 C18.017514,16.2475292 17.1227928,15.7241027 16.479293,15.2140825 C16.1575431,14.9593638 15.8964127,14.7058109 15.6993992,14.5216208 C15.3575784,14.2518037 15.3985234,13.87336 15.5389637,13.8845326 C15.7743675,13.9139203 15.8099605,14.2238669 15.958198,14.3624944 C16.1587088,14.5501819 16.4099302,14.793243 16.7141937,15.0345554 C17.3227207,15.5165974 18.1340901,15.985816 19.1500504,15.985816 C20.1642621,15.985816 21.3481933,15.3903939 22.0708634,14.9850106 C22.4802908,14.7553418 23.0012709,14.3436616 23.4264436,14.0315688 C23.7517327,13.7927937 23.7398711,13.505274 24.0084548,13.5365776 Z M16.6378364,7.40115539 C16.6127726,7.40115539 16.5877087,7.40173827 16.562062,7.40290403 C16.2333175,7.41980756 15.9605296,7.55503578 15.6900731,7.82374359 C15.4190338,8.09186851 15.2325121,8.41828146 15.0926208,8.86943079 C14.9533125,9.32058012 14.9037676,9.75657456 14.9317459,10.2636804 C14.9620557,10.7748664 15.0628939,11.2044491 15.2517472,11.633449 C15.4114563,11.9965834 15.5938979,12.2717029 15.8276329,12.4908659 C15.9348828,12.4115942 16.0269779,12.3439801 16.104501,12.2874407 C16.2257401,12.1988429 16.3244299,12.1182224 16.4713157,12.0045607 C16.4480005,11.9882401 16.4246853,11.9695879 16.4007872,11.9491871 C16.2591473,11.8267822 16.1495658,11.6676559 16.0551392,11.4444128 C15.9630441,11.2275813 15.9111678,11.0130814 15.885521,10.7548654 L15.8831895,10.7251385 C15.8598743,10.4587623 15.8744463,10.2267759 15.9304028,9.9907094 C15.9863593,9.75406001 16.0638824,9.57569865 16.1816242,9.4323101 C16.2999489,9.28833868 16.4246853,9.21489576 16.5750684,9.2020724 C16.5890575,9.20090664 16.6030466,9.20032376 16.6164529,9.20032376 C16.7505153,9.199158 16.8717544,9.25045146 16.9999881,9.36119871 C17.141628,9.48360357 17.2494609,9.64272988 17.3456361,9.86830455 C17.4359825,10.085136 17.4901904,10.2996359 17.5158371,10.5555204 L17.5175858,10.5852473 C17.5362379,10.7781806 17.5327407,10.9507132 17.5088426,11.1209142 C17.754818,10.9582906 18.0093537,10.8360688 18.3299378,10.7253216 C18.3864772,10.7060865 18.4435995,10.6880172 18.5024704,10.6711137 C18.5193739,10.4770146 18.5211226,10.2765038 18.5077163,10.0637525 C18.4797381,9.55256646 18.3788998,9.12298371 18.1894637,8.69340095 C18.0006105,8.26381819 17.7750358,7.95897181 17.4766011,7.72057378 C17.2014816,7.50082792 16.9356882,7.40173827 16.6378364,7.40115539 Z M22.7732341,6.91503325 L22.7516676,6.91503325 C22.2941648,6.91969629 21.9076569,7.05667315 21.5142128,7.35510785 C21.1214097,7.65412543 20.8422101,8.02134 20.6166354,8.53252599 C20.3910608,9.04312911 20.2948855,9.54615478 20.3012972,10.1325323 L20.3012972,10.1774141 C20.3047945,10.3429521 20.3164521,10.5009127 20.3368529,10.6542102 C20.6912441,10.7387278 21.2043006,10.8845091 21.6053222,11.084437 C21.5779268,10.9258936 21.5662692,10.7626871 21.5703494,10.5843257 C21.5703494,10.5715024 21.5703494,10.5604277 21.5720397,10.5476043 C21.5831727,10.2235229 21.6391292,9.95073489 21.7527909,9.6756154 C21.8669771,9.40049592 22.003954,9.20289951 22.188727,9.04843623 C22.3648152,8.90155041 22.5350162,8.8339363 22.730864,8.83335342 C22.7407729,8.83335342 22.750099,8.83335342 22.760008,8.8339363 C22.9686791,8.84093086 23.1423775,8.91787105 23.3166587,9.08748921 C23.4902987,9.25710737 23.6104303,9.46111546 23.7048569,9.74497815 C23.7952034,10.0154346 23.836005,10.2794794 23.8295933,10.5884059 C23.8295933,10.6035608 23.8255131,10.6146355 23.8255131,10.6274589 C23.8150213,10.9497917 23.7590648,11.2202481 23.6448202,11.4971162 C23.5695704,11.6807235 23.3673692,11.8270265 23.264724,11.95118 C23.4064222,12.0001419 23.5438018,12.0455454 23.71989,12.1119937 C23.8958615,12.1784421 24.0922922,12.256548 24.3143696,12.3515575 C24.3785447,12.3777871 24.4402717,12.4051825 24.4997838,12.4337436 C24.6752307,12.2215752 24.8214754,11.9767655 24.9485433,11.6853254 C25.1717864,11.1741394 25.2732076,10.6734452 25.2685446,10.085319 C25.2644644,10.0701641 25.2644644,10.0573408 25.2645227,10.0421859 C25.2533897,9.46921459 25.1438082,8.98600684 24.9164849,8.49172438 C24.6844985,7.98461854 24.3965557,7.62206702 23.9972827,7.33179264 C23.6038385,7.04676419 23.2208862,6.91503325 22.7732341,6.91503325 Z M20.0612356,11.7773668 C20.2189648,11.6896661 20.4343898,11.722927 20.6025326,11.7884841 C20.7331981,11.8394267 20.9362555,11.9277925 20.9180195,12.0668461 C20.9042157,12.172098 20.7390764,12.2119105 20.6329672,12.2088445 C20.5217868,12.2056346 20.4422563,12.0940055 20.3433753,12.0430745 C20.2306883,11.9850307 20.0356466,12.0050894 19.9979436,11.8840712 C19.9856425,11.8445892 20.0250912,11.7974628 20.0612356,11.7773668 Z M18.7826266,11.7773668 C18.818771,11.7974628 18.8582197,11.8445892 18.8459186,11.8840712 C18.8082156,12.0050894 18.6131739,11.9850307 18.5004869,12.0430745 C18.4016059,12.0940055 18.3220754,12.2056346 18.210895,12.2088445 C18.1047858,12.2119105 17.9396465,12.172098 17.9258427,12.0668461 C17.9076067,11.9277925 18.1106641,11.8394267 18.2413296,11.7884841 C18.4094724,11.722927 18.6248974,11.6896661 18.7826266,11.7773668 Z" id="linux" fill="#FFFFFF" fill-rule="nonzero"></path>
    </g>
</svg>