<?xml version="1.0" encoding="UTF-8"?>
<svg width="83px" height="50px" viewBox="0 0 83 50" version="1.1" xmlns="http://www.w3.org/2000/svg" xmlns:xlink="http://www.w3.org/1999/xlink">
    <title>Shape</title>
    <g id="Page-1" stroke="none" stroke-width="1" fill="none" fill-rule="evenodd">
        <path d="M62.5679482,31.7197244 C61.4673596,32.4822012 60.2391164,32.9445175 58.9211701,33.1549748 C57.6032238,33.3654322 56.2956279,33.3240308 54.9811317,33.3240308 L27.8183274,33.3240308 C26.500381,33.3240308 25.189335,33.3723325 23.8679386,33.1549748 C22.5534424,32.9376172 21.3355496,32.4822012 20.2211604,31.7197244 C18.0027325,30.1637198 16.6778859,27.6830826 16.6778859,24.9885379 C16.6778859,22.2422414 18.0130829,19.7616043 20.2280607,18.2608016 C21.3113987,17.4845243 22.5534424,17.022208 23.8472378,16.8117507 C25.1410333,16.6012933 26.4348287,16.6012933 27.7838261,16.6012933 L54.9535307,16.6012933 C56.2473262,16.6012933 57.5928734,16.5529916 58.8866689,16.7599988 C60.1804643,16.9670061 61.422508,17.4293224 62.5127463,18.1572979 C64.7380745,19.6546505 66.0318699,22.1939397 66.0318699,24.8815842 C66.0318699,27.5726787 64.6828725,30.056766 62.4609945,31.6093205 L62.5679482,31.7197244 L62.5679482,31.7197244 Z M73.518633,5.65405865 C70.6032805,3.31487646 67.2670133,1.70021973 63.6340357,0.830789188 C61.5639629,0.327071491 59.4835399,0.102813612 57.3479148,0.0372613091 C55.7988104,-0.0144905091 54.2462559,0.00276009697 52.6419495,0.00276009697 L30.2230618,0.00276009697 C28.6463564,0.00276009697 27.0662009,-0.0144905091 25.4894955,0.0372613091 C23.3573206,0.109713855 21.2734474,0.32362137 19.1930243,0.830789188 C15.5669469,1.70711998 12.2065289,3.32522683 9.30842704,5.66095889 C3.41562,10.3703743 0,17.4741739 0,24.9954382 C0,32.5236027 3.41562,39.6274022 9.27737595,44.3368177 C12.1961785,46.6759999 15.5393459,48.2906566 19.1619732,49.1669874 C21.2423963,49.6707051 23.3228194,49.894963 25.4515442,49.9570652 C27.0040987,50.0122671 28.5566533,49.9984666 30.1609597,49.9984666 L52.5729471,49.9984666 C54.1220515,49.9984666 55.7263579,50.0122671 57.2789124,49.9570652 C59.4007369,49.894963 61.4708097,49.6741552 63.5374323,49.1669874 C67.1600596,48.2837564 70.475626,46.6725498 73.4254797,44.3299175 C79.3872891,39.6239521 82.8029091,32.5167024 82.8029091,24.9954382 C82.8029091,17.4707238 79.3872891,10.3634741 73.518633,5.65405865 Z" id="Shape" fill="#FFFFFF" fill-rule="nonzero"></path>
    </g>
</svg>