<?xml version="1.0" encoding="UTF-8"?>
<svg width="58px" height="50px" viewBox="0 0 58 50" version="1.1" xmlns="http://www.w3.org/2000/svg" xmlns:xlink="http://www.w3.org/1999/xlink">
    <title>old</title>
    <g id="Page-1" stroke="none" stroke-width="1" fill="none" fill-rule="evenodd">
        <path d="M36.2491304,8.90865083 C42.2485785,8.88227636 49.1908041,10.5596923 54.1089102,14.5485597 C55.3549429,15.5391914 56.5021409,16.6355238 57.4712644,17.9167142 L44.5295906,50 C41.1738356,45.4167604 35.3392808,42.5240226 29.4782283,41.4277916 C27.4608597,41.0579574 25.4369089,40.7805859 23.4195402,40.7013272 L25.1138733,36.5273991 C27.6981575,36.6000979 30.2891926,36.9038438 32.8736455,37.5510495 L37.0535294,27.1759098 C34.4032542,26.5353146 31.7595612,26.4560559 29.1224504,26.6013522 L30.4805667,23.193636 C33.0913485,23.1408871 35.7087126,23.3058966 38.3259079,24.0257504 L42.3606451,14.0335476 C39.7169521,13.5184171 37.0732592,13.3334915 34.4427307,13.4259543 L36.2491304,8.90865083 Z M40.2773023,28.1989685 L36.1370806,38.5147657 C38.6621247,39.511991 41.0288578,40.6942095 42.9540752,42.2792134 L47.0019769,32.2670607 C45.2944793,30.4245676 42.8485908,29.1168337 40.2773023,28.1989685 Z M24.5689655,36.3505747 L22.8471569,40.5814248 C21.2180166,40.5417622 19.5954544,40.5285413 17.9597701,40.6609195 L19.661743,36.4366799 L24.5689655,36.3505747 Z M14.5545286,35.9195402 L19.1091954,35.9647361 L17.7730576,39.2241379 L13.2183908,39.1594068 L14.5545286,35.9195402 Z M10.2156339,34.3390805 L14.2241379,34.3654962 L13.2039063,36.9252874 L9.1954023,36.8922676 L10.2156339,34.3390805 Z M26.2931034,31.8965517 L24.729508,35.8005219 L19.8605207,35.9195402 L19.8275862,35.9060346 L21.4439613,31.9426397 L26.2931034,31.8965517 Z M6.51622347,32.6149425 C7.59428537,32.6149425 8.67897757,32.6489831 9.77011494,32.6353669 L8.97471551,34.619671 C7.9032839,34.6336363 6.82530614,34.6266536 5.74712644,34.5924385 L6.51622347,32.6149425 Z M16.6613542,31.6091954 L20.545977,31.635947 C20.1468734,32.560179 19.807626,33.5515986 19.395206,34.4827586 L15.5172414,34.4359434 L16.6613542,31.6091954 Z M15.8045977,29.9260598 L14.8721011,32.183908 L11.4942529,32.1645309 L12.439804,29.8873055 C13.5548969,29.8806809 14.6831111,29.8873055 15.8045977,29.9260598 Z M6.03448276,30.2299137 L5.39159433,31.8328274 L2.87356322,31.8464481 L3.49635924,30.2368102 C4.34685777,30.2368102 5.18394994,30.2099137 6.03448276,30.2299137 Z M28.1609195,27.2988506 L26.5659386,31.2171741 L26.5462148,31.2628917 L21.6954023,31.3218391 L23.2837861,27.3510994 L28.1609195,27.2988506 Z M18.520338,27.1551724 L22.4137931,27.195391 L21.2918646,30.0285638 L17.3850575,29.9414236 L18.520338,27.1551724 Z M11.4942529,28.1609195 C11.2929881,28.7202633 11.0514841,29.3256463 10.803265,29.8849059 L8.04597701,29.8390688 C8.23381154,29.2928983 8.47533271,28.6809287 8.71013876,28.1676578 L11.4942529,28.1609195 Z M2.44252874,27.5970294 L1.85686091,28.9978915 C1.23781641,28.9777881 0.618874128,29.0383053 0,28.9979605 L0.539087002,27.6644432 C1.17133565,27.6106501 1.80360134,27.6240984 2.44252874,27.5970294 Z M45.6372615,14.9177346 L41.5628622,25.0156044 C44.1604795,25.9732172 46.4546393,27.2875278 48.3007012,28.971436 L52.2893629,19.0916628 C50.5950297,17.15669 48.2414611,15.7830199 45.6372615,14.9177346 Z M17.6724138,25.4503381 L16.7291375,27.7298851 L13.362069,27.7165466 L14.2725947,25.4369996 C15.4058342,25.4303304 16.5391407,25.4236612 17.6724138,25.4503381 Z M7.61494253,25.7003739 L7.00640931,27.1820463 L5.02873563,27.1685635 C5.18739655,26.7038566 5.38591743,26.1852704 5.59095747,25.7205463 C6.26563044,25.7136497 6.94030342,25.6734773 7.61494253,25.7003739 Z M30.0287356,22.8448276 L28.4671744,26.8140916 L23.5632184,26.8676444 L25.1380653,22.9052462 L30.0287356,22.8448276 Z M13.2183908,23.8620096 L12.5127537,25.5747126 L9.77011494,25.54124 L10.4291424,23.8551854 C11.36113,23.8817998 12.2931858,23.8285711 13.2183908,23.8620096 Z M19.9916278,22.2701149 L24.5689655,22.3091614 L23.2423681,25.5747126 L18.6781609,25.5421739 L19.9916278,22.2701149 Z M4.02298851,23.066031 L3.53655191,24.2917723 C3.03039264,24.3055655 2.51765353,24.3591861 2.01149425,24.3455655 L2.50451068,23.1198241 C3.01066996,23.0929275 3.51682923,23.066031 4.02298851,23.066031 Z M15.6714199,20.8333333 L19.683908,20.8402102 L18.6676606,23.4190245 L14.6879021,23.4057866 L14.6551724,23.3920329 L15.6714199,20.8333333 Z M7.5066098,21.0668869 L9.48275862,21.12068 C9.3369368,21.5988524 9.13130935,22.12418 8.91247477,22.6023696 C8.24929952,22.5824386 7.56629659,22.6362317 6.89655172,22.5957145 L7.5066098,21.0668869 Z M31.7528736,18.3908046 L30.1678482,22.3470095 L25.3137311,22.4137931 L25.2873563,22.4001985 L26.8591605,18.4638757 L31.7528736,18.3908046 Z M15.2298851,19.1304895 L14.434479,21.1206897 L11.2068966,21.0861978 L11.9497142,19.1164826 C13.0409112,19.1024757 14.1387386,19.1094792 15.2298851,19.1304895 Z M22.2493278,17.816092 L26.1494253,17.8299379 L25.0274548,20.6896552 L21.1206897,20.6623093 L22.2493278,17.816092 Z M5.8908046,18.4761523 L5.40277568,19.7086351 L3.87931034,19.7422385 L4.3475689,18.5232213 C4.84219919,18.4761523 5.37638707,18.4761523 5.8908046,18.4761523 Z M21.2643678,16.3793103 L20.3482464,18.6781609 L16.954023,18.6781609 L17.8701444,16.3793103 L21.2643678,16.3793103 Z M9.13331406,16.4163793 C9.97043801,16.4432759 10.8008585,16.4025862 11.637931,16.4567241 L10.974925,18.0663621 L8.47701149,18.0327586 L9.13331406,16.4163793 Z M33.6206897,13.9367816 L32.0525023,17.7446077 C30.4244535,17.7834325 28.7897534,17.8095934 27.1551724,17.816092 L28.7499478,13.9562773 L33.6206897,13.9367816 Z M23.9719462,13.5057471 L27.8735632,13.5324971 L26.7197759,16.3793103 L22.8448276,16.3391854 L23.9719462,13.5057471 Z M14.1768013,14.6551724 C15.1003364,14.6687017 16.0238034,14.6551724 16.954023,14.674959 L16.2497503,16.3793103 L13.5057471,16.3595238 L14.1768013,14.6551724 Z M7.90229885,13.7874598 L7.3453641,15.2085115 L5.45977011,15.235408 L6.00330628,13.8548736 L7.90229885,13.7874598 Z M23.1321839,11.7993016 L22.1945726,14.0747525 C21.0746564,14.0747525 19.9481394,14.0941145 18.8218391,14.0615135 L19.7594503,11.7860626 C20.885884,11.7728236 22.0058836,11.7926821 23.1321839,11.7993016 Z M35.4885057,8.917562 L33.6842483,13.4724561 L28.8793103,13.5057471 L30.565917,9.23100974 C32.2002419,9.04427274 33.8475871,8.86421101 35.4885057,8.917562 Z M13.2183908,11.9048125 L12.6541278,13.3932263 C11.9958353,13.4263642 11.3039583,13.3927435 10.6321839,13.4065366 L11.1964469,11.8979159 C11.8547394,11.8441228 12.5533401,11.9248125 13.2183908,11.9048125 Z M25.6066901,8.62068966 L30.1724138,8.6596574 L28.8407668,11.9251208 L24.2816092,11.9058035 L25.6066901,8.62068966 Z M18.8218391,10.0680613 L18.1242033,11.7816092 C17.2073573,11.7814067 16.2905113,11.7679089 15.3735632,11.7287652 L16.0512646,10.0613124 C16.9747951,10.0748102 17.8982575,10.0415718 18.8218391,10.0680613 Z M9.48275862,9.26156816 L9.0013142,10.5142578 C8.49349804,10.5281889 7.98568189,10.5818095 7.47126437,10.5614647 L7.97249603,9.33570609 L9.48275862,9.26156816 Z M21.2525659,7.04022989 L25.2873563,7.04709031 L24.2736963,9.62643678 L20.2586207,9.59968114 L21.2525659,7.04022989 Z M13.087164,7.28156322 C13.7601098,7.31518391 14.4198649,7.28156322 15.0862069,7.32190805 L14.4924391,8.81032184 L12.5,8.8103908 L13.087164,7.28156322 Z M20.8333333,5.33426705 L20.0604505,7.32758621 L16.8103448,7.30032356 L17.5634249,5.33426705 C18.6467765,5.33426705 19.7368249,5.29337308 20.8333333,5.33426705 Z M11.3505747,4.66614368 L10.8741682,5.89864368 L9.33908046,5.96604023 L9.81548699,4.73355747 C10.3249752,4.67286782 10.8410865,4.69993678 11.3505747,4.66614368 Z M10.9195402,1.57931034 L11.4645579,0.185172414 C12.0970271,0.17137931 12.7295136,0.144827586 13.362069,0.144827586 L12.7968635,1.53896552 L10.9195402,1.57931034 Z M14.0804598,4.22956034 L14.735377,2.61318103 C15.5707339,2.64007759 16.4060908,2.59938793 17.2413793,2.65352586 L16.5731006,4.28337069 C15.744433,4.2564569 14.9157654,4.26318103 14.0804598,4.22956034 Z" id="old" fill="#FFFFFF" fill-rule="nonzero"></path>
    </g>
</svg>