<?xml version="1.0" encoding="UTF-8"?>
<svg width="72px" height="50px" viewBox="0 0 72 50" version="1.1" xmlns="http://www.w3.org/2000/svg" xmlns:xlink="http://www.w3.org/1999/xlink">
    <title>Combined-Shape</title>
    <g id="Page-1" stroke="none" stroke-width="1" fill="none" fill-rule="evenodd">
        <path d="M36.0783195,0.000300020018 C36.1377337,0.000300020018 36.2040495,0.000300020018 36.277004,0.000911946437 L37.1057482,0.00479416816 C39.3142047,0.0176345914 43.8629417,0.0625760728 48.6505069,0.219871257 L50.0918399,0.270510676 C50.3325557,0.279539099 50.5733431,0.28886847 50.8139397,0.298508818 L52.2531258,0.360162914 C57.0287647,0.578650739 61.5178686,0.92955543 63.6189861,1.49312963 C66.6941027,2.31630335 69.1109443,4.73291248 69.9339755,7.80805409 C71.3040932,12.9366236 71.4173505,23.2029225 71.4266939,24.7919523 L71.4257901,25.3663922 C71.410983,27.3807518 71.2703157,37.2111743 69.9339755,42.193258 C69.1109443,45.2683746 66.6941027,47.6849662 63.6189861,48.5079974 C61.2027009,49.1561448 55.6283035,49.5230204 50.0918399,49.730686 L48.6505069,49.7813282 C43.1448069,49.9622281 37.9549574,49.9945316 36.277004,50.0003 L35.1498588,50.0003 C31.648088,49.9882616 12.8508302,49.8606525 7.8079446,48.5079974 C4.73282799,47.6849662 2.31621886,45.2683746 1.49304515,42.193258 C0.235384825,37.5042382 0.0368068797,28.5204958 0.00545246719,25.8004254 L0.00131542666,25.3663922 C0.000308383897,25.3071464 0.000308383897,25.2546617 0.000308383897,25.2092607 L0.000308383897,24.7919523 C0.000308383897,24.7465514 0.000308383897,24.6940671 0.00131542666,24.6348215 L0.00545246719,24.2007904 C0.0368068797,21.4807321 0.235384825,12.4970319 1.49304515,7.80805409 C2.31621886,4.73291248 4.73282799,2.31630335 7.8079446,1.49312963 C12.5356498,0.225087679 29.3521587,0.0336851205 34.3211251,0.00479416816 L35.1498588,0.000911946437 C35.2228123,0.000300020018 35.2891273,0.000300020018 35.3485408,0.000300020018 L36.0783195,0.000300020018 Z M28.5639068,14.2885248 L28.5639068,35.7145123 L47.1206104,25.0016061 L28.5639068,14.2885248 Z" id="Combined-Shape" fill="#FFFFFF" fill-rule="nonzero"></path>
    </g>
</svg>