<?xml version="1.0" encoding="UTF-8"?>
<svg width="381px" height="200px" viewBox="0 0 381 200" version="1.1" xmlns="http://www.w3.org/2000/svg" xmlns:xlink="http://www.w3.org/1999/xlink">
    <title>floppy</title>
    <defs>
        <path d="M40.1682825,6 C40.2318733,6 40.2951575,6.00132346 40.3583144,6.00394129 C41.7667055,6.00842846 42.8280367,6.54945172 43.577885,7.36111023 C43.6147351,7.39579163 43.6512162,7.43131925 43.6872371,7.46758677 L53.3345436,17.181001 C53.6639126,17.512627 53.9319235,17.8826389 54.1391318,18.27646 C54.6804518,19.0302254 55,19.9564468 55,20.9578947 L55,59.4210526 C55,60.6854941 54.490972,61.830231 53.667985,62.6588575 C52.844998,63.4874839 51.708052,64 50.4522161,64 L4.54778394,64 C3.29194808,64 2.1550021,63.4874839 1.33201508,62.6588575 C0.509028056,61.830231 0,60.6854941 0,59.4210526 L0,10.5789474 C0,9.31450597 0.509028056,8.16976913 1.33201508,7.34114263 C2.1550021,6.51251614 3.29194808,6 4.54778394,6 L40.1682825,6 Z" id="path-1"></path>
    </defs>
    <g id="Page-1" stroke="none" stroke-width="1" fill="none" fill-rule="evenodd">
        <g id="floppy">
            <rect id="CardColour" fill="#00122C" x="0" y="0" width="381" height="200" rx="30"></rect>
            <path d="M258,16 C267.388841,16 275,23.6111593 275,33 L275,29 C275,38.3888407 282.611159,46 292,46 L348,46 C357.388841,46 365,53.6111593 365,63 L365,167 C365,176.388841 357.388841,184 348,184 L33,184 C23.6111593,184 16,176.388841 16,167 L16,33 C16,23.6111593 23.6111593,16 33,16 L258,16 Z M302,9 C309.179702,9 315,14.8202983 315,22 L315,25 C315,32.1797017 309.179702,38 302,38 L299,38 C291.820298,38 286,32.1797017 286,25 L286,22 C286,14.8202983 291.820298,9 299,9 L302,9 Z M348.045942,13.9540585 C348.631728,14.5398449 348.631728,15.4895924 348.045942,16.0753788 L333.635229,30.4863385 L341.014719,30.4852814 C341.843146,30.4852814 342.514719,31.1568542 342.514719,31.9852814 C342.514719,32.8137085 341.843146,33.4852814 341.014719,33.4852814 L330.014719,33.4852814 L329.912,33.481 L329.841388,33.4753748 C329.812574,33.4719681 329.783468,33.4677441 329.754483,33.4626644 C329.733375,33.4590855 329.713117,33.4550948 329.693009,33.4507008 C329.674062,33.4464343 329.654462,33.4417461 329.634944,33.4366587 C329.561199,33.4175073 329.490335,33.3930459 329.422087,33.3636642 C329.356673,33.3356082 329.292387,33.302385 329.23028,33.2642201 C329.184368,33.2358221 329.140485,33.2054772 329.098379,33.172943 C329.048358,33.1343774 329.000085,33.0919676 328.954058,33.0459415 L328.856765,32.9389375 L328.845153,32.9245772 C328.805813,32.8756546 328.769478,32.8242118 328.736431,32.7705292 C328.697145,32.7069455 328.663164,32.6410018 328.634378,32.573374 C328.621753,32.5435123 328.611602,32.5175113 328.602167,32.4911695 L328.586726,32.445483 L328.568813,32.3859003 C328.561121,32.3576113 328.554109,32.3289477 328.547953,32.3001379 C328.544608,32.2851077 328.54162,32.2699802 328.538861,32.2547727 L328.524664,32.1582402 C328.522644,32.1413961 328.520955,32.1240913 328.519562,32.1067029 C328.517095,32.0754375 328.515562,32.0444794 328.514983,32.0135068 L328.514719,20.9852814 C328.514719,20.1568542 329.186292,19.4852814 330.014719,19.4852814 C330.843146,19.4852814 331.514719,20.1568542 331.514719,20.9852814 L331.514616,28.364311 L345.924621,13.9540585 C346.510408,13.368272 347.460155,13.368272 348.045942,13.9540585 Z" id="Combined-Shape" fill="#EEEEEE"></path>
            <path d="M43,32 L121,32 C127.075132,32 132,36.9248678 132,43 L132,121 C132,127.075132 127.075132,132 121,132 L43,132 C36.9248678,132 32,127.075132 32,121 L32,43 C32,36.9248678 36.9248678,32 43,32 Z M150,32 L247,32 C253.075132,32 258,36.9248678 258,43 L258,64 C258,70.0751322 253.075132,75 247,75 L150,75 C143.924868,75 139,70.0751322 139,64 L139,43 C139,36.9248678 143.924868,32 150,32 Z M148,82 L340,82 C344.970563,82 349,86.0294373 349,91 L349,159 C349,163.970563 344.970563,168 340,168 L148,168 C143.029437,168 139,163.970563 139,159 L139,91 C139,86.0294373 143.029437,82 148,82 Z M41,139 L123,139 C127.970563,139 132,143.029437 132,148 L132,159 C132,163.970563 127.970563,168 123,168 L41,168 C36.0294373,168 32,163.970563 32,159 L32,148 C32,143.029437 36.0294373,139 41,139 Z" id="Combined-Shape" fill="#DDDDDD"></path>
            <path d="M153.31,63 C154.59,63 155.37,62.73 155.65,62.19 C155.81,61.89 155.905,61.63 155.935,61.41 C155.965,61.19 155.98,60.84 155.98,60.36 L155.98,54.69 L161.86,54.69 C162.56,54.69 163.07,54.64 163.39,54.54 C164.15,54.28 164.53,53.45 164.53,52.05 C164.53,50.77 164.27,49.98 163.75,49.68 C163.45,49.52 163.185,49.425 162.955,49.395 C162.725,49.365 162.37,49.35 161.89,49.35 L155.98,49.35 L155.98,46.32 L165.358061,46.3190816 C165.738878,46.3154082 166.027857,46.3007143 166.225,46.275 C166.455,46.245 166.72,46.155 167.02,46.005 C167.32,45.855 167.53,45.59 167.65,45.21 C167.77,44.83 167.83,44.32 167.83,43.68 C167.83,43.04 167.77,42.53 167.65,42.15 C167.53,41.77 167.325,41.5 167.035,41.34 C166.745,41.18 166.485,41.085 166.255,41.055 C166.025,41.025 165.68,41.01 165.22,41.01 L153.4,41.01 C152.34,41.01 151.62,41.195 151.24,41.565 C150.86,41.935 150.67,42.63 150.67,43.65 L150.67,60.33 C150.67,61.03 150.73,61.54 150.85,61.86 C151.09,62.62 151.91,63 153.31,63 Z M173.62,62.88 C175.58,63.12 176.82,63.06 177.34,62.7 C177.74,62.42 177.94,61.65 177.94,60.39 C177.94,59.23 177.74,58.52 177.34,58.26 C177.14,58.12 176.97,58.035 176.83,58.005 C176.69,57.975 176.415,57.96 176.005,57.96 C175.595,57.96 175.33,57.865 175.21,57.675 C175.09,57.485 175.03,57.03 175.03,56.31 L175.03,42.42 C175.03,41.96 175.015,41.61 174.985,41.37 C174.955,41.13 174.86,40.86 174.7,40.56 C174.4,40.02 173.64,39.75 172.42,39.75 C171.14,39.75 170.36,40.02 170.08,40.56 C169.94,40.86 169.855,41.125 169.825,41.355 C169.795,41.585 169.78,41.93 169.78,42.39 L169.78,56.67 C169.78,58.81 170.06,60.37 170.62,61.35 C171.08,62.17 172.08,62.68 173.62,62.88 Z M187.39,63.27 C188.71,63.27 189.985,62.965 191.215,62.355 C192.445,61.745 193.49,60.795 194.35,59.505 C195.21,58.215 195.64,56.74 195.64,55.08 C195.64,52.68 194.81,50.705 193.15,49.155 C191.49,47.605 189.58,46.83 187.42,46.83 C185.26,46.83 183.34,47.61 181.66,49.17 C179.98,50.73 179.14,52.71 179.14,55.11 C179.14,56.71 179.565,58.145 180.415,59.415 C181.265,60.685 182.31,61.645 183.55,62.295 C184.79,62.945 186.07,63.27 187.39,63.27 Z M187.36,57.99 C186.7,57.99 186.05,57.75 185.41,57.27 C184.77,56.77 184.45,56.035 184.45,55.065 C184.45,54.095 184.76,53.36 185.38,52.86 C186,52.36 186.67,52.11 187.39,52.11 C188.11,52.11 188.78,52.35 189.4,52.83 C190.02,53.31 190.33,54.04 190.33,55.02 C190.33,56 190,56.74 189.34,57.24 C188.68,57.74 188.02,57.99 187.36,57.99 Z M200.17,69.84 C200.79,69.84 201.28,69.78 201.64,69.66 C202,69.54 202.255,69.335 202.405,69.045 C202.555,68.755 202.645,68.5 202.675,68.28 C202.705,68.06 202.72,67.72 202.72,67.26 L202.72,61.2 C203.46,62.12 204.65,62.58 206.29,62.58 C207.93,62.58 209.475,61.81 210.925,60.27 C212.375,58.73 213.1,56.94 213.1,54.9 C213.1,52.86 212.37,51.07 210.91,49.53 C209.45,47.99 207.905,47.22 206.275,47.22 C204.645,47.22 203.45,47.74 202.69,48.78 C202.63,48.26 202.415,47.865 202.045,47.595 C201.675,47.325 200.96,47.19 199.9,47.19 C198.84,47.19 198.17,47.46 197.89,48 C197.75,48.28 197.665,48.53 197.635,48.75 C197.605,48.97 197.59,49.31 197.59,49.77 L197.590918,67.4797959 C197.594592,67.8446939 197.609286,68.1214286 197.635,68.31 C197.665,68.53 197.755,68.78 197.905,69.06 C198.055,69.34 198.315,69.54 198.685,69.66 C199.055,69.78 199.55,69.84 200.17,69.84 Z M205.345,57.48 C204.615,57.48 204.015,57.215 203.545,56.685 C203.075,56.155 202.84,55.57 202.84,54.93 C202.84,54.29 203.07,53.7 203.53,53.16 C203.99,52.62 204.605,52.35 205.375,52.35 C206.145,52.35 206.77,52.615 207.25,53.145 C207.73,53.675 207.97,54.27 207.97,54.93 C207.97,55.59 207.715,56.18 207.205,56.7 C206.695,57.22 206.075,57.48 205.345,57.48 Z M217.63,69.84 C218.25,69.84 218.74,69.78 219.1,69.66 C219.46,69.54 219.715,69.335 219.865,69.045 C220.015,68.755 220.105,68.5 220.135,68.28 C220.165,68.06 220.18,67.72 220.18,67.26 L220.18,61.2 C220.92,62.12 222.11,62.58 223.75,62.58 C225.39,62.58 226.935,61.81 228.385,60.27 C229.835,58.73 230.56,56.94 230.56,54.9 C230.56,52.86 229.83,51.07 228.37,49.53 C226.91,47.99 225.365,47.22 223.735,47.22 C222.105,47.22 220.91,47.74 220.15,48.78 C220.09,48.26 219.875,47.865 219.505,47.595 C219.135,47.325 218.42,47.19 217.36,47.19 C216.3,47.19 215.63,47.46 215.35,48 C215.21,48.28 215.125,48.53 215.095,48.75 C215.065,48.97 215.05,49.31 215.05,49.77 L215.050918,67.4797959 C215.054592,67.8446939 215.069286,68.1214286 215.095,68.31 C215.125,68.53 215.215,68.78 215.365,69.06 C215.515,69.34 215.775,69.54 216.145,69.66 C216.515,69.78 217.01,69.84 217.63,69.84 Z M222.805,57.48 C222.075,57.48 221.475,57.215 221.005,56.685 C220.535,56.155 220.3,55.57 220.3,54.93 C220.3,54.29 220.53,53.7 220.99,53.16 C221.45,52.62 222.065,52.35 222.835,52.35 C223.605,52.35 224.23,52.615 224.71,53.145 C225.19,53.675 225.43,54.27 225.43,54.93 C225.43,55.59 225.175,56.18 224.665,56.7 C224.155,57.22 223.535,57.48 222.805,57.48 Z M237.91,70.08 C238.27,70.08 238.57,69.99 238.81,69.81 C239.05,69.63 239.225,69.44 239.335,69.24 C239.445,69.04 239.58,68.75 239.74,68.37 L247.6,50.79 C247.6,50.77 247.68,50.6 247.84,50.28 C248,49.96 248.08,49.62 248.08,49.26 C248.08,48.52 247.49,47.89 246.31,47.37 C245.67,47.09 245.115,46.95 244.645,46.95 C244.175,46.95 243.81,47.12 243.55,47.46 C243.39,47.66 243.275,47.83 243.205,47.97 C243.135,48.11 242.61,49.255 241.63,51.405 C240.65,53.555 240.11,54.79 240.01,55.11 C239.11,53.65 238.165,52.075 237.175,50.385 C236.185,48.695 235.635,47.765 235.525,47.595 C235.415,47.425 235.24,47.26 235,47.1 C234.76,46.94 234.45,46.86 234.07,46.86 C233.69,46.86 233.16,47.06 232.48,47.46 C231.4,48.1 230.86,48.74 230.86,49.38 C230.86,49.7 231.06,50.19 231.46,50.85 L237.43,60.9 C235.51,65 234.55,67.29 234.55,67.77 C234.55,68.49 235.14,69.11 236.32,69.63 C237.02,69.93 237.55,70.08 237.91,70.08 Z M147.048,121 C147.378667,121 147.645333,120.968 147.848,120.904 C148.050667,120.84 148.192,120.730667 148.272,120.576 C148.352,120.421333 148.4,120.285333 148.416,120.168 C148.432,120.050667 148.44,119.869333 148.44,119.624 L148.44,111.576 L151.496,111.576 C151.848,111.576 152.12,111.528 152.312,111.432 C152.44,111.368 152.530667,111.253333 152.584,111.088 C152.637333,110.922667 152.664,110.701333 152.664,110.424 C152.664,110.146667 152.637333,109.922667 152.584,109.752 C152.530667,109.581333 152.424,109.456 152.264,109.376 C152.104,109.296 151.853333,109.256 151.512,109.256 L142.616,109.256 C142.264,109.256 141.992,109.304 141.8,109.4 C141.672,109.464 141.581333,109.578667 141.528,109.744 C141.474667,109.909333 141.448,110.130667 141.448,110.408 C141.448,110.685333 141.474667,110.909333 141.528,111.08 C141.581333,111.250667 141.688,111.376 141.848,111.456 C142.008,111.536 142.258667,111.576 142.6,111.576 L145.672,111.576 L145.672,119.608 C145.672,119.853333 145.68,120.037333 145.696,120.16 C145.712,120.282667 145.76,120.421333 145.84,120.576 C145.92,120.730667 146.058667,120.84 146.256,120.904 C146.453333,120.968 146.717333,121 147.048,121 Z M160.536,121 C161.218667,121 161.629333,120.861333 161.768,120.584 C161.853333,120.424 161.904,120.282667 161.92,120.16 C161.936,120.037333 161.944,119.853333 161.944,119.608 L161.944,116.792 C161.944,115.618667 161.589333,114.626667 160.88,113.816 C160.170667,113.005333 159.282667,112.6 158.216,112.6 C157.501333,112.6 156.877333,112.925333 156.344,113.576 L156.34304,109.90016 C156.34048,109.72352 156.3328,109.586133 156.32,109.488 C156.304,109.365333 156.253333,109.224 156.168,109.064 C156.029333,108.776 155.624,108.632 154.952,108.632 C154.269333,108.632 153.853333,108.776 153.704,109.064 C153.629333,109.213333 153.584,109.349333 153.568,109.472 C153.552,109.594667 153.544,109.778667 153.544,110.024 L153.544,119.592 C153.544,119.848 153.552,120.034667 153.568,120.152 C153.584,120.269333 153.629333,120.408 153.704,120.568 C153.853333,120.856 154.264,121 154.936,121 C155.618667,121 156.029333,120.861333 156.168,120.584 C156.253333,120.424 156.304,120.282667 156.32,120.16 C156.336,120.037333 156.344,119.853333 156.344,119.608 L156.344,116.504 C156.386667,116.216 156.552,115.957333 156.84,115.728 C157.128,115.498667 157.461333,115.384 157.84,115.384 C158.218667,115.384 158.530667,115.506667 158.776,115.752 C159.021333,115.997333 159.144,116.338667 159.144,116.776 L159.14496,119.72192 C159.14752,119.90624 159.1552,120.0496 159.168,120.152 C159.184,120.28 159.234667,120.424 159.32,120.584 C159.48,120.861333 159.885333,121 160.536,121 Z M167.528,121.208 C169.8,121.208 170.936,120.733333 170.936,119.784 C170.936,119.581333 170.866667,119.336 170.728,119.048 C170.482667,118.568 170.189333,118.328 169.848,118.328 C169.677333,118.328 169.464,118.386667 169.208,118.504 L169.032,118.568 C168.68,118.696 168.194667,118.76 167.576,118.76 C167.224,118.76 166.872,118.658667 166.52,118.456 C166.168,118.253333 165.992,118.002667 165.992,117.704 L169.784,117.704 C170.178667,117.704 170.538667,117.546667 170.864,117.232 C171.189333,116.917333 171.352,116.434667 171.352,115.784 C171.352,115.122667 171.170667,114.514667 170.808,113.96 C170.114667,112.914667 169.026667,112.392 167.544,112.392 C166.242667,112.392 165.157333,112.794667 164.288,113.6 C163.418667,114.405333 162.984,115.48 162.984,116.824 C162.984,117.890667 163.32,118.856 163.992,119.72 C164.333333,120.168 164.810667,120.528 165.424,120.8 C166.037333,121.072 166.738667,121.208 167.528,121.208 Z M167.976,116.248 L165.96,116.248 C165.96,115.928 166.130667,115.626667 166.472,115.344 C166.813333,115.061333 167.157333,114.92 167.504,114.92 C167.850667,114.92 168.117333,114.994667 168.304,115.144 C168.490667,115.293333 168.584,115.490667 168.584,115.736 C168.584,116.077333 168.381333,116.248 167.976,116.248 Z M180.6,121.144 C181.304,121.144 181.984,120.981333 182.64,120.656 C183.296,120.330667 183.853333,119.824 184.312,119.136 C184.770667,118.448 185,117.661333 185,116.776 C185,115.496 184.557333,114.442667 183.672,113.616 C182.786667,112.789333 181.768,112.376 180.616,112.376 C179.464,112.376 178.44,112.792 177.544,113.624 C176.648,114.456 176.2,115.512 176.2,116.792 C176.2,117.645333 176.426667,118.410667 176.88,119.088 C177.333333,119.765333 177.890667,120.277333 178.552,120.624 C179.213333,120.970667 179.896,121.144 180.6,121.144 Z M180.584,118.328 C180.232,118.328 179.885333,118.2 179.544,117.944 C179.202667,117.677333 179.032,117.285333 179.032,116.768 C179.032,116.250667 179.197333,115.858667 179.528,115.592 C179.858667,115.325333 180.216,115.192 180.6,115.192 C180.984,115.192 181.341333,115.32 181.672,115.576 C182.002667,115.832 182.168,116.221333 182.168,116.744 C182.168,117.266667 181.992,117.661333 181.64,117.928 C181.288,118.194667 180.936,118.328 180.584,118.328 Z M194.152,121 C194.482667,121 194.752,120.968 194.96,120.904 C195.168,120.84 195.322667,120.709333 195.424,120.512 C195.525333,120.314667 195.576,120.013333 195.576,119.608 L195.576,115.32 L196.6,115.384 C197.026667,115.384 197.352,115.32 197.576,115.192 C197.725333,115.106667 197.834667,114.965333 197.904,114.768 C197.973333,114.570667 198.008,114.306667 198.008,113.976 C198.008,113.645333 197.976,113.378667 197.912,113.176 C197.784,112.770667 197.352,112.568 196.616,112.568 L195.576,112.664 L195.576,111.784 C195.576,111.517333 195.773333,111.384 196.168,111.384 C196.370667,111.384 196.525333,111.378667 196.632,111.368 C196.941333,111.357333 197.170667,111.261333 197.32,111.08 C197.501333,110.866667 197.592,110.504 197.592,109.992 C197.592,109.309333 197.448,108.893333 197.16,108.744 C197,108.669333 196.861333,108.624 196.744,108.608 C196.626667,108.592 196.44,108.584 196.184,108.584 C195.074667,108.584 194.226667,108.917333 193.64,109.584 C193.053333,110.250667 192.76,110.994667 192.76,111.816 L192.76,112.664 L191.4,112.6 C190.984,112.6 190.493333,112.621333 189.928,112.664 L189.928,111.784 C189.928,111.517333 190.125333,111.384 190.52,111.384 C190.722667,111.384 190.872,111.378667 190.968,111.368 C191.288,111.357333 191.522667,111.261333 191.672,111.08 C191.853333,110.866667 191.944,110.504 191.944,109.992 C191.944,109.309333 191.8,108.893333 191.512,108.744 C191.352,108.669333 191.210667,108.624 191.088,108.608 C190.965333,108.592 190.781333,108.584 190.536,108.584 C189.426667,108.584 188.578667,108.917333 187.992,109.584 C187.405333,110.250667 187.112,110.994667 187.112,111.816 L187.112,112.664 L186.584,112.6 C186.328,112.6 186.114667,112.669333 185.944,112.808 C185.848,112.893333 185.773333,113.034667 185.72,113.232 C185.666667,113.429333 185.64,113.746667 185.64,114.184 C185.64,114.621333 185.717333,114.930667 185.872,115.112 C186.026667,115.293333 186.218667,115.384 186.448,115.384 C186.677333,115.384 186.898667,115.368 187.112,115.336 L187.11296,119.71616 C187.11552,119.893653 187.1232,120.0336 187.136,120.136 C187.152,120.264 187.202667,120.405333 187.288,120.56 C187.373333,120.714667 187.514667,120.826667 187.712,120.896 C187.909333,120.965333 188.173333,121 188.504,121 C188.834667,121 189.104,120.968 189.312,120.904 C189.52,120.84 189.674667,120.709333 189.776,120.512 C189.877333,120.314667 189.928,120.013333 189.928,119.608 L189.928,115.32 L191.48,115.384 C191.810667,115.384 192.237333,115.368 192.76,115.336 L192.76096,119.71616 C192.76352,119.893653 192.7712,120.0336 192.784,120.136 C192.8,120.264 192.850667,120.405333 192.936,120.56 C193.021333,120.714667 193.162667,120.826667 193.36,120.896 C193.557333,120.965333 193.821333,121 194.152,121 Z M200.312,111.496 C200.642667,111.496 200.909333,111.464 201.112,111.4 C201.314667,111.336 201.456,111.226667 201.536,111.072 C201.616,110.917333 201.664,110.778667 201.68,110.656 C201.696,110.533333 201.704,110.349333 201.704,110.104 C201.704,109.858667 201.696,109.674667 201.68,109.552 C201.664,109.429333 201.613333,109.288 201.528,109.128 C201.389333,108.850667 200.989333,108.712 200.328,108.712 C199.645333,108.712 199.234667,108.850667 199.096,109.128 C199.010667,109.277333 198.96,109.413333 198.944,109.536 C198.928,109.658667 198.92,109.842667 198.92,110.088 L198.92096,110.22784 C198.92352,110.40448 198.9312,110.541867 198.944,110.64 C198.96,110.762667 199.008,110.904 199.088,111.064 C199.168,111.224 199.309333,111.336 199.512,111.4 C199.714667,111.464 199.981333,111.496 200.312,111.496 Z M200.312,121 C200.642667,121 200.909333,120.968 201.112,120.904 C201.314667,120.84 201.456,120.730667 201.536,120.576 C201.616,120.421333 201.664,120.285333 201.68,120.168 C201.696,120.050667 201.704,119.869333 201.704,119.624 L201.704,114.056 C201.704,113.8 201.696,113.610667 201.68,113.488 C201.664,113.365333 201.616,113.224 201.536,113.064 C201.456,112.904 201.317333,112.792 201.12,112.728 C200.922667,112.664 200.656,112.632 200.32,112.632 C199.984,112.632 199.714667,112.664 199.512,112.728 C199.309333,112.792 199.165333,112.904 199.08,113.064 C199.005333,113.213333 198.96,113.349333 198.944,113.472 C198.928,113.594667 198.92,113.778667 198.92,114.024 L198.92096,119.74784 C198.92352,119.92448 198.9312,120.061867 198.944,120.16 C198.96,120.282667 199.008,120.421333 199.088,120.576 C199.168,120.730667 199.309333,120.84 199.512,120.904 C199.714667,120.968 199.981333,121 200.312,121 Z M207.096,121.08 C207.981333,121.08 208.728,120.866667 209.336,120.44 C209.922667,120.088 210.216,119.709333 210.216,119.304 C210.216,119.058667 210.093333,118.781333 209.848,118.472 C209.389333,117.906667 209,117.624 208.68,117.624 C208.498667,117.624 208.261333,117.722667 207.968,117.92 C207.674667,118.117333 207.36,118.216 207.024,118.216 C206.688,118.216 206.370667,118.090667 206.072,117.84 C205.773333,117.589333 205.624,117.24 205.624,116.792 C205.624,116.333333 205.778667,115.976 206.088,115.72 C206.397333,115.464 206.730667,115.336 207.088,115.336 C207.445333,115.336 207.72,115.426667 207.912,115.608 C208.285333,115.842667 208.573333,115.96 208.776,115.96 C209.128,115.96 209.496,115.666667 209.88,115.08 C210.104,114.738667 210.216,114.432 210.216,114.16 C210.216,113.888 210.077333,113.645333 209.8,113.432 C209.693333,113.357333 209.544,113.256 209.352,113.128 L209.096,112.968 C208.914667,112.861333 208.632,112.752 208.248,112.64 C207.864,112.528 207.469333,112.472 207.064,112.472 C206.061333,112.472 205.117333,112.824 204.232,113.528 C203.794667,113.869333 203.437333,114.32 203.16,114.88 C202.882667,115.44 202.744,116.064 202.744,116.752 C202.744,117.44 202.882667,118.069333 203.16,118.64 C203.437333,119.210667 203.794667,119.666667 204.232,120.008 C205.149333,120.722667 206.104,121.08 207.096,121.08 Z M212.656,111.432 C212.992,111.432 213.261333,111.4 213.464,111.336 C213.666667,111.272 213.805333,111.165333 213.88,111.016 C213.965333,110.856 214.016,110.714667 214.032,110.592 C214.048,110.469333 214.056,110.285333 214.056,110.04 C214.056,109.794667 214.048,109.610667 214.032,109.488 C214.016,109.365333 213.965333,109.224 213.88,109.064 C213.741333,108.776 213.336,108.632 212.664,108.632 C211.981333,108.632 211.565333,108.776 211.416,109.064 C211.341333,109.213333 211.296,109.349333 211.28,109.472 C211.264,109.594667 211.256,109.778667 211.256,110.024 L211.25696,110.16384 C211.25952,110.34048 211.2672,110.477867 211.28,110.576 C211.296,110.698667 211.344,110.84 211.424,111 C211.504,111.16 211.645333,111.272 211.848,111.336 C212.050667,111.4 212.32,111.432 212.656,111.432 Z M212.648,121 C213.330667,121 213.741333,120.861333 213.88,120.584 C213.965333,120.424 214.016,120.282667 214.032,120.16 C214.048,120.037333 214.056,119.853333 214.056,119.608 L214.056,114.008 C214.056,113.805333 214.050667,113.650667 214.04,113.544 C214.029333,113.234667 213.933333,113.005333 213.752,112.856 C213.538667,112.674667 213.176,112.584 212.664,112.584 C211.981333,112.584 211.565333,112.722667 211.416,113 C211.341333,113.16 211.296,113.301333 211.28,113.424 C211.264,113.546667 211.256,113.730667 211.256,113.976 L211.25696,119.73728 C211.25952,119.919893 211.2672,120.058133 211.28,120.152 C211.296,120.269333 211.341333,120.408 211.416,120.568 C211.565333,120.856 211.976,121 212.648,121 Z M222.336,120.968 C222.917333,120.968 223.282667,120.829333 223.432,120.552 C223.506667,120.392 223.552,120.250667 223.568,120.128 C223.584,120.005333 223.592,119.821333 223.592,119.576 L223.592,113.976 C223.592,113.730667 223.584,113.546667 223.568,113.424 C223.552,113.301333 223.504,113.16 223.424,113 C223.344,112.84 223.202667,112.728 223,112.664 C222.797333,112.6 222.488,112.568 222.072,112.568 C221.293333,112.568 220.872,112.866667 220.808,113.464 C220.733333,113.357333 220.637333,113.248 220.52,113.136 C220.402667,113.024 220.194667,112.904 219.896,112.776 C219.597333,112.648 219.266667,112.584 218.904,112.584 C217.954667,112.584 217.082667,113.002667 216.288,113.84 C215.493333,114.677333 215.096,115.653333 215.096,116.768 C215.096,117.882667 215.490667,118.861333 216.28,119.704 C217.069333,120.546667 217.925333,120.968 218.848,120.968 C219.770667,120.968 220.429333,120.685333 220.824,120.12 C220.856,120.397333 220.970667,120.608 221.168,120.752 C221.365333,120.896 221.754667,120.968 222.336,120.968 Z M219.32,118.168 C218.925333,118.168 218.589333,118.026667 218.312,117.744 C218.034667,117.461333 217.896,117.144 217.896,116.792 C217.896,116.44 218.026667,116.114667 218.288,115.816 C218.549333,115.517333 218.890667,115.368 219.312,115.368 C219.733333,115.368 220.069333,115.517333 220.32,115.816 C220.570667,116.114667 220.696,116.437333 220.696,116.784 C220.696,117.130667 220.565333,117.448 220.304,117.736 C220.042667,118.024 219.714667,118.168 219.32,118.168 Z M226.92,120.936 C227.965333,121.064 228.626667,121.032 228.904,120.84 C229.117333,120.690667 229.224,120.28 229.224,119.608 C229.224,118.989333 229.117333,118.610667 228.904,118.472 C228.797333,118.397333 228.706667,118.352 228.632,118.336 C228.557333,118.32 228.410667,118.312 228.192,118.312 C227.973333,118.312 227.832,118.261333 227.768,118.16 C227.704,118.058667 227.672,117.816 227.672,117.432 L227.672,110.024 C227.672,109.778667 227.664,109.592 227.648,109.464 C227.632,109.336 227.581333,109.192 227.496,109.032 C227.336,108.744 226.930667,108.6 226.28,108.6 C225.597333,108.6 225.181333,108.744 225.032,109.032 C224.957333,109.192 224.912,109.333333 224.896,109.456 C224.88,109.578667 224.872,109.762667 224.872,110.008 L224.872,117.624 C224.872,118.765333 225.021333,119.597333 225.32,120.12 C225.565333,120.557333 226.098667,120.829333 226.92,120.936 Z M236.2,120.936 C237.245333,121.064 237.906667,121.032 238.184,120.84 C238.397333,120.690667 238.504,120.28 238.504,119.608 C238.504,118.989333 238.397333,118.610667 238.184,118.472 C238.077333,118.397333 237.986667,118.352 237.912,118.336 C237.837333,118.32 237.690667,118.312 237.472,118.312 C237.253333,118.312 237.112,118.261333 237.048,118.16 C236.984,118.058667 236.952,117.816 236.952,117.432 L236.952,110.024 C236.952,109.778667 236.944,109.592 236.928,109.464 C236.912,109.336 236.861333,109.192 236.776,109.032 C236.616,108.744 236.210667,108.6 235.56,108.6 C234.877333,108.6 234.461333,108.744 234.312,109.032 C234.237333,109.192 234.192,109.333333 234.176,109.456 C234.16,109.578667 234.152,109.762667 234.152,110.008 L234.152,117.624 C234.152,118.765333 234.301333,119.597333 234.6,120.12 C234.845333,120.557333 235.378667,120.829333 236.2,120.936 Z M243.544,121.144 C244.248,121.144 244.928,120.981333 245.584,120.656 C246.24,120.330667 246.797333,119.824 247.256,119.136 C247.714667,118.448 247.944,117.661333 247.944,116.776 C247.944,115.496 247.501333,114.442667 246.616,113.616 C245.730667,112.789333 244.712,112.376 243.56,112.376 C242.408,112.376 241.384,112.792 240.488,113.624 C239.592,114.456 239.144,115.512 239.144,116.792 C239.144,117.645333 239.370667,118.410667 239.824,119.088 C240.277333,119.765333 240.834667,120.277333 241.496,120.624 C242.157333,120.970667 242.84,121.144 243.544,121.144 Z M243.528,118.328 C243.176,118.328 242.829333,118.2 242.488,117.944 C242.146667,117.677333 241.976,117.285333 241.976,116.768 C241.976,116.250667 242.141333,115.858667 242.472,115.592 C242.802667,115.325333 243.16,115.192 243.544,115.192 C243.928,115.192 244.285333,115.32 244.616,115.576 C244.946667,115.832 245.112,116.221333 245.112,116.744 C245.112,117.266667 244.936,117.661333 244.584,117.928 C244.232,118.194667 243.88,118.328 243.528,118.328 Z M252.904,124.632 C253.970667,124.632 254.930667,124.256 255.784,123.504 C256.637333,122.752 257.064,121.762667 257.064,120.536 L257.064,113.912 C257.064,113.666667 257.056,113.485333 257.04,113.368 C257.024,113.250667 256.976,113.114667 256.896,112.96 C256.816,112.805333 256.68,112.696 256.488,112.632 C256.296,112.568 255.992,112.536 255.576,112.536 C255.16,112.536 254.858667,112.613333 254.672,112.768 C254.485333,112.922667 254.376,113.149333 254.344,113.448 C254.28,113.352 254.192,113.248 254.08,113.136 C253.968,113.024 253.762667,112.901333 253.464,112.768 C253.165333,112.634667 252.834667,112.568 252.472,112.568 C251.544,112.568 250.690667,112.978667 249.912,113.8 C249.133333,114.621333 248.744,115.576 248.744,116.664 C248.744,117.752 249.130667,118.704 249.904,119.52 C250.677333,120.336 251.506667,120.744 252.392,120.744 C253.277333,120.744 253.922667,120.477333 254.328,119.944 L254.328,120.424 C254.328,120.872 254.2,121.256 253.944,121.576 C253.688,121.896 253.357333,122.056 252.952,122.056 C252.354667,122.056 251.8,121.858667 251.288,121.464 C251.128,121.336 250.973333,121.272 250.824,121.272 C250.674667,121.272 250.544,121.314667 250.432,121.4 C250.32,121.485333 250.162667,121.64 249.96,121.864 C249.64,122.184 249.48,122.552 249.48,122.968 C249.48,123.288 249.848,123.645333 250.584,124.04 C251.32,124.434667 252.093333,124.632 252.904,124.632 Z M252.88,118.024 C252.490667,118.024 252.16,117.885333 251.888,117.608 C251.616,117.330667 251.48,117.021333 251.48,116.68 C251.48,116.328 251.608,116.008 251.864,115.72 C252.12,115.432 252.456,115.288 252.872,115.288 C253.288,115.288 253.618667,115.434667 253.864,115.728 C254.109333,116.021333 254.232,116.336 254.232,116.672 C254.232,117.008 254.104,117.317333 253.848,117.6 C253.592,117.882667 253.269333,118.024 252.88,118.024 Z M262.504,121.144 C263.208,121.144 263.888,120.981333 264.544,120.656 C265.2,120.330667 265.757333,119.824 266.216,119.136 C266.674667,118.448 266.904,117.661333 266.904,116.776 C266.904,115.496 266.461333,114.442667 265.576,113.616 C264.690667,112.789333 263.672,112.376 262.52,112.376 C261.368,112.376 260.344,112.792 259.448,113.624 C258.552,114.456 258.104,115.512 258.104,116.792 C258.104,117.645333 258.330667,118.410667 258.784,119.088 C259.237333,119.765333 259.794667,120.277333 260.456,120.624 C261.117333,120.970667 261.8,121.144 262.504,121.144 Z M262.488,118.328 C262.136,118.328 261.789333,118.2 261.448,117.944 C261.106667,117.677333 260.936,117.285333 260.936,116.768 C260.936,116.250667 261.101333,115.858667 261.432,115.592 C261.762667,115.325333 262.12,115.192 262.504,115.192 C262.888,115.192 263.245333,115.32 263.576,115.576 C263.906667,115.832 264.072,116.221333 264.072,116.744 C264.072,117.266667 263.896,117.661333 263.544,117.928 C263.192,118.194667 262.84,118.328 262.488,118.328 Z M274.456,121.016 C274.786667,121.016 275.056,120.984 275.264,120.92 C275.472,120.856 275.626667,120.725333 275.728,120.528 C275.829333,120.330667 275.88,120.029333 275.88,119.624 L275.88,115.336 L276.904,115.4 C277.330667,115.4 277.656,115.336 277.88,115.208 C278.029333,115.122667 278.138667,114.981333 278.208,114.784 C278.277333,114.586667 278.312,114.322667 278.312,113.992 C278.312,113.661333 278.28,113.394667 278.216,113.192 C278.088,112.786667 277.656,112.584 276.92,112.584 L275.88,112.68 L275.88,111.8 C275.88,111.533333 276.077333,111.4 276.472,111.4 L276.92,111.4 C277.24,111.378667 277.474667,111.282667 277.624,111.112 C277.805333,110.888 277.896,110.52 277.896,110.008 C277.896,109.325333 277.752,108.914667 277.464,108.776 C277.304,108.690667 277.162667,108.64 277.04,108.624 C276.917333,108.608 276.733333,108.6 276.488,108.6 C275.378667,108.6 274.530667,108.933333 273.944,109.6 C273.357333,110.266667 273.064,111.010667 273.064,111.832 L273.064,112.68 L272.536,112.68 C271.906667,112.68 271.592,113.117333 271.592,113.992 C271.592,114.568 271.693333,114.957333 271.896,115.16 C272.013333,115.266667 272.210667,115.330667 272.488,115.352 L273.064,115.352 L273.06496,119.73216 C273.06752,119.909653 273.0752,120.0496 273.088,120.152 C273.104,120.28 273.154667,120.421333 273.24,120.576 C273.325333,120.730667 273.466667,120.842667 273.664,120.912 C273.861333,120.981333 274.125333,121.016 274.456,121.016 Z M283.032,121.144 C283.736,121.144 284.416,120.981333 285.072,120.656 C285.728,120.330667 286.285333,119.824 286.744,119.136 C287.202667,118.448 287.432,117.661333 287.432,116.776 C287.432,115.496 286.989333,114.442667 286.104,113.616 C285.218667,112.789333 284.2,112.376 283.048,112.376 C281.896,112.376 280.872,112.792 279.976,113.624 C279.08,114.456 278.632,115.512 278.632,116.792 C278.632,117.645333 278.858667,118.410667 279.312,119.088 C279.765333,119.765333 280.322667,120.277333 280.984,120.624 C281.645333,120.970667 282.328,121.144 283.032,121.144 Z M283.016,118.328 C282.664,118.328 282.317333,118.2 281.976,117.944 C281.634667,117.677333 281.464,117.285333 281.464,116.768 C281.464,116.250667 281.629333,115.858667 281.96,115.592 C282.290667,115.325333 282.648,115.192 283.032,115.192 C283.416,115.192 283.773333,115.32 284.104,115.576 C284.434667,115.832 284.6,116.221333 284.6,116.744 C284.6,117.266667 284.424,117.661333 284.072,117.928 C283.72,118.194667 283.368,118.328 283.016,118.328 Z M289.864,121 C290.536,121 290.952,120.861333 291.112,120.584 C291.197333,120.424 291.248,120.282667 291.264,120.16 C291.28,120.037333 291.288,119.853333 291.288,119.608 L291.288,116.248 C291.288,115.96 291.413333,115.714667 291.664,115.512 C291.914667,115.309333 292.184,115.208 292.472,115.208 C292.76,115.208 292.992,115.250667 293.168,115.336 C293.344,115.421333 293.528,115.464 293.72,115.464 C294.104,115.464 294.397333,115.261333 294.6,114.856 C294.802667,114.450667 294.904,114.077333 294.904,113.736 C294.904,113.394667 294.837333,113.146667 294.704,112.992 C294.570667,112.837333 294.402667,112.728 294.2,112.664 C293.997333,112.6 293.810667,112.554667 293.64,112.528 C293.469333,112.501333 293.258667,112.488 293.008,112.488 C292.757333,112.488 292.466667,112.578667 292.136,112.76 C291.805333,112.941333 291.589333,113.085333 291.488,113.192 C291.386667,113.298667 291.309333,113.389333 291.256,113.464 C291.256,113.282667 291.197333,113.106667 291.08,112.936 C290.92,112.690667 290.52,112.568 289.88,112.568 C289.197333,112.568 288.781333,112.712 288.632,113 C288.557333,113.149333 288.512,113.285333 288.496,113.408 C288.48,113.530667 288.472,113.714667 288.472,113.96 L288.472,120.04 C288.493333,120.349333 288.589333,120.578667 288.76,120.728 C288.984,120.909333 289.352,121 289.864,121 Z M303.848,121.16 C304.829333,121.16 305.752,120.877333 306.616,120.312 C307.064,120.024 307.426667,119.616 307.704,119.088 C307.981333,118.56 308.12,117.949333 308.12,117.256 C308.12,116.562667 307.984,115.978667 307.712,115.504 C307.44,115.029333 307.101333,114.696 306.696,114.504 C306.290667,114.312 305.848,114.149333 305.368,114.016 C304.888,113.882667 304.445333,113.784 304.04,113.72 C303.634667,113.656 303.296,113.533333 303.024,113.352 C302.752,113.170667 302.616,112.933333 302.616,112.64 C302.616,112.346667 302.730667,112.117333 302.96,111.952 C303.189333,111.786667 303.477333,111.704 303.824,111.704 C304.170667,111.704 304.456,111.773333 304.68,111.912 C304.754667,111.965333 304.837333,112.034667 304.928,112.12 C305.018667,112.205333 305.08,112.258667 305.112,112.28 C305.442667,112.493333 305.72,112.6 305.944,112.6 C306.328,112.6 306.701333,112.333333 307.064,111.8 C307.32,111.426667 307.448,111.133333 307.448,110.92 C307.448,110.706667 307.282667,110.445333 306.952,110.136 L306.552,109.832 C306.349333,109.661333 305.984,109.493333 305.456,109.328 C304.928,109.162667 304.344,109.08 303.704,109.08 C302.498667,109.08 301.546667,109.429333 300.848,110.128 C300.149333,110.826667 299.8,111.645333 299.8,112.584 C299.8,113.266667 299.936,113.850667 300.208,114.336 C300.48,114.821333 300.818667,115.176 301.224,115.4 C301.629333,115.624 302.066667,115.818667 302.536,115.984 C303.005333,116.149333 303.442667,116.269333 303.848,116.344 C304.253333,116.418667 304.592,116.538667 304.864,116.704 C305.136,116.869333 305.272,117.074667 305.272,117.32 C305.272,118.130667 304.776,118.536 303.784,118.536 C303.549333,118.536 303.293333,118.453333 303.016,118.288 C302.738667,118.122667 302.525333,117.949333 302.376,117.768 C301.842667,117.234667 301.426667,116.968 301.128,116.968 C300.829333,116.968 300.546667,117.096 300.28,117.352 C299.821333,117.8 299.592,118.16 299.592,118.432 C299.592,118.704 299.730667,119.010667 300.008,119.352 L300.152,119.528 C300.376,119.848 300.770667,120.178667 301.336,120.52 C301.613333,120.701333 301.976,120.853333 302.424,120.976 C302.872,121.098667 303.346667,121.16 303.848,121.16 Z M316.168,120.984 C316.829333,120.984 317.24,120.845333 317.4,120.568 C317.485333,120.418667 317.536,120.282667 317.552,120.16 C317.568,120.037333 317.576,119.858667 317.576,119.624 L317.576,113.96 C317.576,113.714667 317.568,113.530667 317.552,113.408 C317.536,113.285333 317.490667,113.144 317.416,112.984 C317.266667,112.696 316.856,112.552 316.184,112.552 C315.501333,112.552 315.090667,112.690667 314.952,112.968 C314.866667,113.128 314.816,113.269333 314.8,113.392 C314.784,113.514667 314.776,113.698667 314.776,113.944 L314.776,116.776 C314.776,117.192 314.645333,117.528 314.384,117.784 C314.122667,118.04 313.781333,118.168 313.36,118.168 C312.938667,118.168 312.602667,118.045333 312.352,117.8 C312.101333,117.554667 311.976,117.213333 311.976,116.776 L311.976,113.976 C311.976,113.602667 311.944,113.330667 311.88,113.16 C311.752,112.754667 311.314667,112.552 310.568,112.552 C309.885333,112.552 309.469333,112.696 309.32,112.984 C309.245333,113.144 309.2,113.282667 309.184,113.4 C309.168,113.517333 309.16,113.704 309.16,113.96 L309.16,116.76 C309.16,117.933333 309.514667,118.928 310.224,119.744 C310.933333,120.56 311.826667,120.968 312.904,120.968 C313.330667,120.968 313.725333,120.850667 314.088,120.616 C314.226667,120.52 314.370667,120.402667 314.52,120.264 C314.669333,120.125333 314.765333,120.018667 314.808,119.944 C314.808,120.2 314.861333,120.418667 314.968,120.6 C315.117333,120.856 315.517333,120.984 316.168,120.984 Z M325.864,120.984 C326.546667,120.984 326.962667,120.84 327.112,120.552 C327.186667,120.402667 327.232,120.266667 327.248,120.144 C327.264,120.021333 327.272,119.837333 327.272,119.592 L327.272,116.776 C327.272,115.602667 326.917333,114.608 326.208,113.792 C325.498667,112.976 324.610667,112.568 323.544,112.568 C323.106667,112.568 322.706667,112.690667 322.344,112.936 C322.205333,113.021333 322.061333,113.133333 321.912,113.272 C321.762667,113.410667 321.666667,113.517333 321.624,113.592 C321.624,113.336 321.570667,113.117333 321.464,112.936 C321.314667,112.690667 320.914667,112.568 320.264,112.568 C319.592,112.568 319.181333,112.701333 319.032,112.968 C318.946667,113.117333 318.896,113.253333 318.88,113.376 C318.864,113.498667 318.856,113.677333 318.856,113.912 L318.85696,119.71584 C318.85952,119.89248 318.8672,120.029867 318.88,120.128 C318.896,120.250667 318.941333,120.392 319.016,120.552 C319.165333,120.84 319.576,120.984 320.248,120.984 C320.930667,120.984 321.341333,120.84 321.48,120.552 C321.565333,120.402667 321.616,120.266667 321.632,120.144 C321.648,120.021333 321.656,119.837333 321.656,119.592 L321.656,116.76 C321.656,116.344 321.786667,116.008 322.048,115.752 C322.309333,115.496 322.650667,115.368 323.072,115.368 C323.493333,115.368 323.829333,115.490667 324.08,115.736 C324.330667,115.981333 324.456,116.322667 324.456,116.76 L324.456,119.576 C324.456,119.938667 324.488,120.210667 324.552,120.392 C324.669333,120.786667 325.106667,120.984 325.864,120.984 Z M335.56,120.984 C336.242667,120.984 336.658667,120.84 336.808,120.552 C336.882667,120.402667 336.928,120.266667 336.944,120.144 C336.96,120.021333 336.968,119.837333 336.968,119.592 L336.968,116.776 C336.968,115.602667 336.613333,114.608 335.904,113.792 C335.194667,112.976 334.306667,112.568 333.24,112.568 C332.802667,112.568 332.402667,112.690667 332.04,112.936 C331.901333,113.021333 331.757333,113.133333 331.608,113.272 C331.458667,113.410667 331.362667,113.517333 331.32,113.592 C331.32,113.336 331.266667,113.117333 331.16,112.936 C331.010667,112.690667 330.610667,112.568 329.96,112.568 C329.288,112.568 328.877333,112.701333 328.728,112.968 C328.642667,113.117333 328.592,113.253333 328.576,113.376 C328.56,113.498667 328.552,113.677333 328.552,113.912 L328.55296,119.71584 C328.55552,119.89248 328.5632,120.029867 328.576,120.128 C328.592,120.250667 328.637333,120.392 328.712,120.552 C328.861333,120.84 329.272,120.984 329.944,120.984 C330.626667,120.984 331.037333,120.84 331.176,120.552 C331.261333,120.402667 331.312,120.266667 331.328,120.144 C331.344,120.021333 331.352,119.837333 331.352,119.592 L331.352,116.76 C331.352,116.344 331.482667,116.008 331.744,115.752 C332.005333,115.496 332.346667,115.368 332.768,115.368 C333.189333,115.368 333.525333,115.490667 333.776,115.736 C334.026667,115.981333 334.152,116.322667 334.152,116.76 L334.152,119.576 C334.152,119.938667 334.184,120.210667 334.248,120.392 C334.365333,120.786667 334.802667,120.984 335.56,120.984 Z M341.128,124.776 C341.32,124.776 341.48,124.728 341.608,124.632 C341.736,124.536 341.829333,124.434667 341.888,124.328 C341.946667,124.221333 342.018667,124.066667 342.104,123.864 L346.296,114.488 C346.296,114.484444 346.300741,114.472 346.310222,114.450667 L346.352889,114.36 C346.371852,114.320889 346.395556,114.272889 346.424,114.216 C346.509333,114.045333 346.552,113.864 346.552,113.672 C346.552,113.277333 346.237333,112.941333 345.608,112.664 C345.266667,112.514667 344.970667,112.44 344.72,112.44 C344.469333,112.44 344.274667,112.530667 344.136,112.712 C344.050667,112.818667 343.989333,112.909333 343.952,112.984 C343.914667,113.058667 343.634667,113.669333 343.112,114.816 C342.589333,115.962667 342.301333,116.621333 342.248,116.792 C341.768,116.013333 341.264,115.173333 340.736,114.272 C340.208,113.370667 339.914667,112.874667 339.856,112.784 C339.797333,112.693333 339.704,112.605333 339.576,112.52 C339.448,112.434667 339.282667,112.392 339.08,112.392 C338.877333,112.392 338.594667,112.498667 338.232,112.712 C337.656,113.053333 337.368,113.394667 337.368,113.736 C337.368,113.906667 337.474667,114.168 337.688,114.52 L340.872,119.88 C339.848,122.066667 339.336,123.288 339.336,123.544 C339.336,123.928 339.650667,124.258667 340.28,124.536 C340.653333,124.696 340.936,124.776 341.128,124.776 Z M169.336,141 C170.018667,141 170.434667,140.856 170.584,140.568 C170.669333,140.408 170.72,140.269333 170.736,140.152 C170.752,140.034667 170.76,139.848 170.76,139.592 L170.76,136.568 L173.896,136.568 C174.269333,136.568 174.541333,136.541333 174.712,136.488 C175.117333,136.349333 175.32,135.906667 175.32,135.16 C175.32,134.477333 175.181333,134.056 174.904,133.896 C174.744,133.810667 174.602667,133.76 174.48,133.744 C174.357333,133.728 174.168,133.72 173.912,133.72 L170.76,133.72 L170.76,132.104 L175.8016,132.10304 C175.985067,132.10048 176.125867,132.0928 176.224,132.08 C176.346667,132.064 176.488,132.016 176.648,131.936 C176.808,131.856 176.92,131.714667 176.984,131.512 C177.048,131.309333 177.08,131.037333 177.08,130.696 C177.08,130.354667 177.048,130.082667 176.984,129.88 C176.92,129.677333 176.810667,129.533333 176.656,129.448 C176.501333,129.362667 176.362667,129.312 176.24,129.296 C176.117333,129.28 175.933333,129.272 175.688,129.272 L169.384,129.272 C168.818667,129.272 168.434667,129.370667 168.232,129.568 C168.029333,129.765333 167.928,130.136 167.928,130.68 L167.928,139.576 C167.928,139.949333 167.96,140.221333 168.024,140.392 C168.152,140.797333 168.589333,141 169.336,141 Z M180.168,140.936 C181.213333,141.064 181.874667,141.032 182.152,140.84 C182.365333,140.690667 182.472,140.28 182.472,139.608 C182.472,138.989333 182.365333,138.610667 182.152,138.472 C182.045333,138.397333 181.954667,138.352 181.88,138.336 C181.805333,138.32 181.658667,138.312 181.44,138.312 C181.221333,138.312 181.08,138.261333 181.016,138.16 C180.952,138.058667 180.92,137.816 180.92,137.432 L180.91904,129.88384 C180.91648,129.706347 180.9088,129.5664 180.896,129.464 C180.88,129.336 180.829333,129.192 180.744,129.032 C180.584,128.744 180.178667,128.6 179.528,128.6 C178.845333,128.6 178.429333,128.744 178.28,129.032 C178.205333,129.192 178.16,129.333333 178.144,129.456 C178.128,129.578667 178.12,129.762667 178.12,130.008 L178.12,137.624 C178.12,138.765333 178.269333,139.597333 178.568,140.12 C178.813333,140.557333 179.346667,140.829333 180.168,140.936 Z M187.512,141.144 C188.216,141.144 188.896,140.981333 189.552,140.656 C190.208,140.330667 190.765333,139.824 191.224,139.136 C191.682667,138.448 191.912,137.661333 191.912,136.776 C191.912,135.496 191.469333,134.442667 190.584,133.616 C189.698667,132.789333 188.68,132.376 187.528,132.376 C186.376,132.376 185.352,132.792 184.456,133.624 C183.56,134.456 183.112,135.512 183.112,136.792 C183.112,137.645333 183.338667,138.410667 183.792,139.088 C184.245333,139.765333 184.802667,140.277333 185.464,140.624 C186.125333,140.970667 186.808,141.144 187.512,141.144 Z M187.496,138.328 C187.144,138.328 186.797333,138.2 186.456,137.944 C186.114667,137.677333 185.944,137.285333 185.944,136.768 C185.944,136.250667 186.109333,135.858667 186.44,135.592 C186.770667,135.325333 187.128,135.192 187.512,135.192 C187.896,135.192 188.253333,135.32 188.584,135.576 C188.914667,135.832 189.08,136.221333 189.08,136.744 C189.08,137.266667 188.904,137.661333 188.552,137.928 C188.2,138.194667 187.848,138.328 187.496,138.328 Z M194.328,144.648 C194.658667,144.648 194.92,144.616 195.112,144.552 C195.304,144.488 195.44,144.378667 195.52,144.224 C195.6,144.069333 195.648,143.933333 195.664,143.816 C195.68,143.698667 195.688,143.517333 195.688,143.272 L195.688,140.04 C196.082667,140.530667 196.717333,140.776 197.592,140.776 C198.466667,140.776 199.290667,140.365333 200.064,139.544 C200.837333,138.722667 201.224,137.768 201.224,136.68 C201.224,135.592 200.834667,134.637333 200.056,133.816 C199.277333,132.994667 198.453333,132.584 197.584,132.584 C196.714667,132.584 196.077333,132.861333 195.672,133.416 C195.64,133.138667 195.525333,132.928 195.328,132.784 C195.130667,132.64 194.749333,132.568 194.184,132.568 C193.618667,132.568 193.261333,132.712 193.112,133 C193.037333,133.149333 192.992,133.282667 192.976,133.4 C192.96,133.517333 192.952,133.698667 192.952,133.944 L192.95296,143.42752 C192.95552,143.603307 192.9632,143.738133 192.976,143.832 C192.992,143.949333 193.04,144.082667 193.12,144.232 C193.2,144.381333 193.338667,144.488 193.536,144.552 C193.733333,144.616 193.997333,144.648 194.328,144.648 Z M197.088,138.056 C196.698667,138.056 196.378667,137.914667 196.128,137.632 C195.877333,137.349333 195.752,137.037333 195.752,136.696 C195.752,136.354667 195.874667,136.04 196.12,135.752 C196.365333,135.464 196.693333,135.32 197.104,135.32 C197.514667,135.32 197.848,135.461333 198.104,135.744 C198.36,136.026667 198.488,136.344 198.488,136.696 C198.488,137.048 198.352,137.362667 198.08,137.64 C197.808,137.917333 197.477333,138.056 197.088,138.056 Z M203.64,144.648 C203.970667,144.648 204.232,144.616 204.424,144.552 C204.616,144.488 204.752,144.378667 204.832,144.224 C204.912,144.069333 204.96,143.933333 204.976,143.816 C204.992,143.698667 205,143.517333 205,143.272 L205,140.04 C205.394667,140.530667 206.029333,140.776 206.904,140.776 C207.778667,140.776 208.602667,140.365333 209.376,139.544 C210.149333,138.722667 210.536,137.768 210.536,136.68 C210.536,135.592 210.146667,134.637333 209.368,133.816 C208.589333,132.994667 207.765333,132.584 206.896,132.584 C206.026667,132.584 205.389333,132.861333 204.984,133.416 C204.952,133.138667 204.837333,132.928 204.64,132.784 C204.442667,132.64 204.061333,132.568 203.496,132.568 C202.930667,132.568 202.573333,132.712 202.424,133 C202.349333,133.149333 202.304,133.282667 202.288,133.4 C202.272,133.517333 202.264,133.698667 202.264,133.944 L202.264,143.288 C202.264,143.533333 202.272,143.714667 202.288,143.832 C202.304,143.949333 202.352,144.082667 202.432,144.232 C202.512,144.381333 202.650667,144.488 202.848,144.552 C203.045333,144.616 203.309333,144.648 203.64,144.648 Z M206.4,138.056 C206.010667,138.056 205.690667,137.914667 205.44,137.632 C205.189333,137.349333 205.064,137.037333 205.064,136.696 C205.064,136.354667 205.186667,136.04 205.432,135.752 C205.677333,135.464 206.005333,135.32 206.416,135.32 C206.826667,135.32 207.16,135.461333 207.416,135.744 C207.672,136.026667 207.8,136.344 207.8,136.696 C207.8,137.048 207.664,137.362667 207.392,137.64 C207.12,137.917333 206.789333,138.056 206.4,138.056 Z M214.456,144.776 C214.648,144.776 214.808,144.728 214.936,144.632 C215.064,144.536 215.157333,144.434667 215.216,144.328 C215.274667,144.221333 215.346667,144.066667 215.432,143.864 L219.624,134.488 C219.624,134.477333 219.666667,134.386667 219.752,134.216 C219.837333,134.045333 219.88,133.864 219.88,133.672 C219.88,133.277333 219.565333,132.941333 218.936,132.664 C218.594667,132.514667 218.298667,132.44 218.048,132.44 C217.797333,132.44 217.602667,132.530667 217.464,132.712 C217.378667,132.818667 217.317333,132.909333 217.28,132.984 C217.242667,133.058667 216.962667,133.669333 216.44,134.816 C215.917333,135.962667 215.629333,136.621333 215.576,136.792 C215.096,136.013333 214.592,135.173333 214.064,134.272 C213.536,133.370667 213.242667,132.874667 213.184,132.784 C213.125333,132.693333 213.032,132.605333 212.904,132.52 C212.776,132.434667 212.610667,132.392 212.408,132.392 C212.205333,132.392 211.922667,132.498667 211.56,132.712 C210.984,133.053333 210.696,133.394667 210.696,133.736 C210.696,133.906667 210.802667,134.168 211.016,134.52 L214.2,139.88 C213.176,142.066667 212.664,143.288 212.664,143.544 C212.664,143.928 212.978667,144.258667 213.608,144.536 C213.981333,144.696 214.264,144.776 214.456,144.776 Z M229.144,140.984 C230.776,140.984 232.165333,140.402667 233.312,139.24 C234.458667,138.077333 235.032,136.682667 235.032,135.056 C235.032,133.429333 234.445333,132.058667 233.272,130.944 C232.098667,129.829333 230.738667,129.272 229.192,129.272 L226.232,129.256 C225.549333,129.256 225.133333,129.4 224.984,129.688 C224.898667,129.848 224.848,129.986667 224.832,130.104 C224.816,130.221333 224.808,130.408 224.808,130.664 L224.808,139.56 C224.808,140.018667 224.872,140.36 225,140.584 C225.16,140.850667 225.565333,140.984 226.216,140.984 Z M229.192,138.152 L227.64,138.152 L227.64,132.104 L229.176,132.104 C229.986667,132.104 230.693333,132.394667 231.296,132.976 C231.898667,133.557333 232.2,134.28 232.2,135.144 C232.2,136.008 231.890667,136.725333 231.272,137.296 C230.653333,137.866667 229.96,138.152 229.192,138.152 Z M237.472,131.432 C237.808,131.432 238.077333,131.4 238.28,131.336 C238.482667,131.272 238.621333,131.165333 238.696,131.016 C238.781333,130.856 238.832,130.714667 238.848,130.592 C238.864,130.469333 238.872,130.285333 238.872,130.04 L238.87104,129.90016 C238.86848,129.72352 238.8608,129.586133 238.848,129.488 C238.832,129.365333 238.781333,129.224 238.696,129.064 C238.557333,128.776 238.152,128.632 237.48,128.632 C236.797333,128.632 236.381333,128.776 236.232,129.064 C236.157333,129.213333 236.112,129.349333 236.096,129.472 C236.08,129.594667 236.072,129.778667 236.072,130.024 C236.072,130.269333 236.08,130.453333 236.096,130.576 C236.112,130.698667 236.16,130.84 236.24,131 C236.32,131.16 236.461333,131.272 236.664,131.336 C236.866667,131.4 237.136,131.432 237.472,131.432 Z M237.464,141 C238.146667,141 238.557333,140.861333 238.696,140.584 C238.781333,140.424 238.832,140.282667 238.848,140.16 C238.864,140.037333 238.872,139.853333 238.872,139.608 L238.872,134.008 C238.872,133.805333 238.866667,133.650667 238.856,133.544 C238.845333,133.234667 238.749333,133.005333 238.568,132.856 C238.354667,132.674667 237.992,132.584 237.48,132.584 C236.797333,132.584 236.381333,132.722667 236.232,133 C236.157333,133.16 236.112,133.301333 236.096,133.424 C236.08,133.546667 236.072,133.730667 236.072,133.976 L236.072,139.592 C236.072,139.848 236.08,140.034667 236.096,140.152 C236.112,140.269333 236.157333,140.408 236.232,140.568 C236.381333,140.856 236.792,141 237.464,141 Z M243.184,141.144 C244.213333,141.144 245.069333,140.978667 245.752,140.648 C246.125333,140.456 246.416,140.165333 246.624,139.776 C246.832,139.386667 246.936,138.914667 246.936,138.36 C246.936,137.805333 246.832,137.344 246.624,136.976 C246.416,136.608 246.157333,136.349333 245.848,136.2 C245.186667,135.869333 244.504,135.666667 243.8,135.592 C243.074667,135.496 242.712,135.288 242.712,134.968 C242.712,134.733333 243.026667,134.616 243.656,134.616 C244.061333,134.616 244.437333,134.696 244.784,134.856 C245.130667,135.016 245.368,135.096 245.496,135.096 C245.741333,135.096 245.981333,134.909333 246.216,134.536 C246.450667,134.162667 246.568,133.848 246.568,133.592 C246.568,133.336 246.381333,133.122667 246.008,132.952 C245.208,132.589333 244.429333,132.408 243.672,132.408 C241.357333,132.408 240.2,133.250667 240.2,134.936 C240.2,135.501333 240.301333,135.989333 240.504,136.4 C240.706667,136.810667 240.962667,137.112 241.272,137.304 C241.933333,137.709333 242.6,137.96 243.272,138.056 C243.986667,138.152 244.344,138.301333 244.344,138.504 C244.344,138.76 244.018667,138.888 243.368,138.888 C243.005333,138.888 242.6,138.757333 242.152,138.496 C241.704,138.234667 241.349333,138.104 241.088,138.104 C240.826667,138.104 240.637333,138.194667 240.52,138.376 C240.114667,138.941333 239.912,139.362667 239.912,139.64 C239.912,139.917333 240.013333,140.12 240.216,140.248 C241.165333,140.845333 242.154667,141.144 243.184,141.144 Z M254.216,141.096 C254.493333,141.096 254.813333,140.872 255.176,140.424 C255.506667,139.986667 255.672,139.64 255.672,139.384 C255.672,139.277333 255.637333,139.165333 255.568,139.048 C255.498667,138.930667 255.330667,138.76 255.064,138.536 L252.936,136.776 L254.52,135.432 C254.914667,135.101333 255.112,134.813333 255.112,134.568 C255.112,134.322667 254.938667,133.984 254.592,133.552 C254.245333,133.12 253.938667,132.904 253.672,132.904 C253.405333,132.904 253.085333,133.048 252.712,133.336 L252.52,133.464 C252.328,133.624 252.037333,133.896 251.648,134.28 C251.258667,134.664 250.968,134.936 250.776,135.096 L250.77536,129.9088 C250.773653,129.763733 250.768533,129.6528 250.76,129.576 C250.749333,129.256 250.653333,129.021333 250.472,128.872 C250.258667,128.690667 249.896,128.6 249.384,128.6 C248.701333,128.6 248.285333,128.744 248.136,129.032 C248.061333,129.192 248.016,129.333333 248,129.456 C247.984,129.578667 247.976,129.762667 247.976,130.008 L247.976,139.592 C247.976,139.837333 247.984,140.021333 248,140.144 C248.016,140.266667 248.061333,140.408 248.136,140.568 C248.285333,140.856 248.696,141 249.368,141 C250.050667,141 250.461333,140.861333 250.6,140.584 C250.685333,140.424 250.736,140.282667 250.752,140.16 C250.768,140.037333 250.776,139.853333 250.776,139.608 L250.776,138.376 C251.042667,138.589333 251.432,138.949333 251.944,139.456 C252.456,139.962667 252.834667,140.317333 253.08,140.52 L253.24,140.632 C253.656,140.941333 253.981333,141.096 254.216,141.096 Z M264.616,141.16 C265.597333,141.16 266.52,140.877333 267.384,140.312 C267.832,140.024 268.194667,139.616 268.472,139.088 C268.749333,138.56 268.888,137.949333 268.888,137.256 C268.888,136.562667 268.752,135.978667 268.48,135.504 C268.208,135.029333 267.869333,134.696 267.464,134.504 C267.058667,134.312 266.616,134.149333 266.136,134.016 C265.656,133.882667 265.213333,133.784 264.808,133.72 C264.402667,133.656 264.064,133.533333 263.792,133.352 C263.52,133.170667 263.384,132.933333 263.384,132.64 C263.384,132.346667 263.498667,132.117333 263.728,131.952 C263.957333,131.786667 264.245333,131.704 264.592,131.704 C264.938667,131.704 265.224,131.773333 265.448,131.912 C265.522667,131.965333 265.605333,132.034667 265.696,132.12 C265.786667,132.205333 265.848,132.258667 265.88,132.28 C266.210667,132.493333 266.488,132.6 266.712,132.6 C267.096,132.6 267.469333,132.333333 267.832,131.8 C268.088,131.426667 268.216,131.133333 268.216,130.92 C268.216,130.706667 268.050667,130.445333 267.72,130.136 L267.32,129.832 C267.117333,129.661333 266.752,129.493333 266.224,129.328 C265.696,129.162667 265.112,129.08 264.472,129.08 C263.266667,129.08 262.314667,129.429333 261.616,130.128 C260.917333,130.826667 260.568,131.645333 260.568,132.584 C260.568,133.266667 260.704,133.850667 260.976,134.336 C261.248,134.821333 261.586667,135.176 261.992,135.4 C262.397333,135.624 262.834667,135.818667 263.304,135.984 C263.773333,136.149333 264.210667,136.269333 264.616,136.344 C265.021333,136.418667 265.36,136.538667 265.632,136.704 C265.904,136.869333 266.04,137.074667 266.04,137.32 C266.04,138.130667 265.544,138.536 264.552,138.536 C264.317333,138.536 264.061333,138.453333 263.784,138.288 C263.506667,138.122667 263.293333,137.949333 263.144,137.768 C262.610667,137.234667 262.194667,136.968 261.896,136.968 C261.597333,136.968 261.314667,137.096 261.048,137.352 C260.589333,137.8 260.36,138.16 260.36,138.432 C260.36,138.704 260.498667,139.010667 260.776,139.352 L260.92,139.528 C261.144,139.848 261.538667,140.178667 262.104,140.52 C262.381333,140.701333 262.744,140.853333 263.192,140.976 C263.64,141.098667 264.114667,141.16 264.616,141.16 Z M274.072,141 C274.306667,141 274.485333,140.992 274.608,140.976 C274.730667,140.96 274.872,140.914667 275.032,140.84 C275.330667,140.690667 275.48,140.28 275.48,139.608 C275.48,139.032 275.357333,138.674667 275.112,138.536 C274.962667,138.450667 274.821333,138.4 274.688,138.384 C274.554667,138.368 274.362667,138.36 274.112,138.36 C273.861333,138.36 273.690667,138.296 273.6,138.168 C273.509333,138.04 273.464,137.832 273.464,137.544 L273.464,135.336 L274.504,135.4 C274.749333,135.4 274.933333,135.392 275.056,135.376 C275.178667,135.36 275.32,135.314667 275.48,135.24 C275.768,135.090667 275.912,134.68 275.912,134.008 C275.912,133.325333 275.773333,132.914667 275.496,132.776 C275.336,132.690667 275.194667,132.64 275.072,132.624 C274.949333,132.608 274.768,132.6 274.528,132.6 C274.288,132.6 273.933333,132.621333 273.464,132.664 L273.464,131.096 C273.464,130.722667 273.437333,130.450667 273.384,130.28 C273.245333,129.885333 272.813333,129.688 272.088,129.688 C271.405333,129.688 270.994667,129.821333 270.856,130.088 C270.770667,130.226667 270.72,130.354667 270.704,130.472 C270.688,130.589333 270.68,130.770667 270.68,131.016 L270.68,132.664 L270.152,132.6 C269.896,132.6 269.682667,132.669333 269.512,132.808 C269.416,132.893333 269.341333,133.034667 269.288,133.232 C269.234667,133.429333 269.208,133.746667 269.208,134.184 C269.208,134.621333 269.285333,134.930667 269.44,135.112 C269.594667,135.293333 269.789333,135.384 270.024,135.384 C270.258667,135.384 270.477333,135.368 270.68,135.336 L270.68,137.704 C270.68,138.898667 270.968,139.746667 271.544,140.248 C272.12,140.749333 272.962667,141 274.072,141 Z M283.8,140.984 C284.461333,140.984 284.872,140.845333 285.032,140.568 C285.117333,140.418667 285.168,140.282667 285.184,140.16 C285.2,140.037333 285.208,139.858667 285.208,139.624 L285.208,133.96 C285.208,133.714667 285.2,133.530667 285.184,133.408 C285.168,133.285333 285.122667,133.144 285.048,132.984 C284.898667,132.696 284.488,132.552 283.816,132.552 C283.133333,132.552 282.722667,132.690667 282.584,132.968 C282.498667,133.128 282.448,133.269333 282.432,133.392 C282.416,133.514667 282.408,133.698667 282.408,133.944 L282.408,136.776 C282.408,137.192 282.277333,137.528 282.016,137.784 C281.754667,138.04 281.413333,138.168 280.992,138.168 C280.570667,138.168 280.234667,138.045333 279.984,137.8 C279.733333,137.554667 279.608,137.213333 279.608,136.776 L279.608,133.976 C279.608,133.602667 279.576,133.330667 279.512,133.16 C279.384,132.754667 278.946667,132.552 278.2,132.552 C277.517333,132.552 277.101333,132.696 276.952,132.984 C276.877333,133.144 276.832,133.282667 276.816,133.4 C276.8,133.517333 276.792,133.704 276.792,133.96 L276.792,136.76 C276.792,137.933333 277.146667,138.928 277.856,139.744 C278.565333,140.56 279.458667,140.968 280.536,140.968 C280.962667,140.968 281.357333,140.850667 281.72,140.616 C281.858667,140.52 282.002667,140.402667 282.152,140.264 C282.301333,140.125333 282.397333,140.018667 282.44,139.944 C282.44,140.2 282.493333,140.418667 282.6,140.6 C282.749333,140.856 283.149333,140.984 283.8,140.984 Z M293.248,140.984 C293.989333,140.984 294.44,140.84 294.6,140.552 C294.685333,140.402667 294.736,140.266667 294.752,140.144 C294.768,140.021333 294.776,139.837333 294.776,139.592 L294.77504,129.90016 C294.77248,129.72352 294.7648,129.586133 294.752,129.488 C294.736,129.365333 294.688,129.224 294.608,129.064 C294.528,128.904 294.386667,128.792 294.184,128.728 C293.981333,128.664 293.712,128.632 293.376,128.632 C293.04,128.632 292.770667,128.664 292.568,128.728 C292.365333,128.792 292.221333,128.904 292.136,129.064 C292.061333,129.213333 292.016,129.349333 292,129.472 C291.984,129.594667 291.976,129.778667 291.976,130.024 L291.976,133.384 C291.538667,132.850667 290.925333,132.584 290.136,132.584 C289.186667,132.584 288.314667,133.005333 287.52,133.848 C286.725333,134.690667 286.328,135.669333 286.328,136.784 C286.328,137.898667 286.722667,138.874667 287.512,139.712 C288.301333,140.549333 289.176,140.968 290.136,140.968 C290.936,140.968 291.56,140.712 292.008,140.2 C292.093333,140.722667 292.506667,140.984 293.248,140.984 Z M290.552,138.184 C290.157333,138.184 289.821333,138.04 289.544,137.752 C289.266667,137.464 289.128,137.144 289.128,136.792 C289.128,136.44 289.256,136.117333 289.512,135.824 C289.768,135.530667 290.109333,135.384 290.536,135.384 C290.962667,135.384 291.301333,135.533333 291.552,135.832 C291.802667,136.130667 291.928,136.453333 291.928,136.8 C291.928,137.146667 291.797333,137.464 291.536,137.752 C291.274667,138.04 290.946667,138.184 290.552,138.184 Z M297.456,131.432 C297.792,131.432 298.061333,131.4 298.264,131.336 C298.466667,131.272 298.605333,131.165333 298.68,131.016 C298.765333,130.856 298.816,130.714667 298.832,130.592 C298.848,130.469333 298.856,130.285333 298.856,130.04 C298.856,129.794667 298.848,129.610667 298.832,129.488 C298.816,129.365333 298.765333,129.224 298.68,129.064 C298.541333,128.776 298.136,128.632 297.464,128.632 C296.781333,128.632 296.365333,128.776 296.216,129.064 C296.141333,129.213333 296.096,129.349333 296.08,129.472 C296.064,129.594667 296.056,129.778667 296.056,130.024 C296.056,130.269333 296.064,130.453333 296.08,130.576 C296.096,130.698667 296.144,130.84 296.224,131 C296.304,131.16 296.445333,131.272 296.648,131.336 C296.850667,131.4 297.12,131.432 297.456,131.432 Z M297.448,141 C298.130667,141 298.541333,140.861333 298.68,140.584 C298.765333,140.424 298.816,140.282667 298.832,140.16 C298.848,140.037333 298.856,139.853333 298.856,139.608 L298.856,134.008 C298.856,133.805333 298.850667,133.650667 298.84,133.544 C298.829333,133.234667 298.733333,133.005333 298.552,132.856 C298.338667,132.674667 297.976,132.584 297.464,132.584 C296.781333,132.584 296.365333,132.722667 296.216,133 C296.141333,133.16 296.096,133.301333 296.08,133.424 C296.064,133.546667 296.056,133.730667 296.056,133.976 L296.056,139.592 C296.056,139.848 296.064,140.034667 296.08,140.152 C296.096,140.269333 296.141333,140.408 296.216,140.568 C296.365333,140.856 296.776,141 297.448,141 Z M304.296,141.144 C305,141.144 305.68,140.981333 306.336,140.656 C306.992,140.330667 307.549333,139.824 308.008,139.136 C308.466667,138.448 308.696,137.661333 308.696,136.776 C308.696,135.496 308.253333,134.442667 307.368,133.616 C306.482667,132.789333 305.464,132.376 304.312,132.376 C303.16,132.376 302.136,132.792 301.24,133.624 C300.344,134.456 299.896,135.512 299.896,136.792 C299.896,137.645333 300.122667,138.410667 300.576,139.088 C301.029333,139.765333 301.586667,140.277333 302.248,140.624 C302.909333,140.970667 303.592,141.144 304.296,141.144 Z M304.28,138.328 C303.928,138.328 303.581333,138.2 303.24,137.944 C302.898667,137.677333 302.728,137.285333 302.728,136.768 C302.728,136.250667 302.893333,135.858667 303.224,135.592 C303.554667,135.325333 303.912,135.192 304.296,135.192 C304.68,135.192 305.037333,135.32 305.368,135.576 C305.698667,135.832 305.864,136.221333 305.864,136.744 C305.864,137.266667 305.688,137.661333 305.336,137.928 C304.984,138.194667 304.632,138.328 304.28,138.328 Z M312.768,141.144 C313.797333,141.144 314.653333,140.978667 315.336,140.648 C315.709333,140.456 316,140.165333 316.208,139.776 C316.416,139.386667 316.52,138.914667 316.52,138.36 C316.52,137.805333 316.416,137.344 316.208,136.976 C316,136.608 315.741333,136.349333 315.432,136.2 C314.770667,135.869333 314.088,135.666667 313.384,135.592 C312.658667,135.496 312.296,135.288 312.296,134.968 C312.296,134.733333 312.610667,134.616 313.24,134.616 C313.645333,134.616 314.021333,134.696 314.368,134.856 C314.714667,135.016 314.952,135.096 315.08,135.096 C315.325333,135.096 315.565333,134.909333 315.8,134.536 C316.034667,134.162667 316.152,133.848 316.152,133.592 C316.152,133.336 315.965333,133.122667 315.592,132.952 C314.792,132.589333 314.013333,132.408 313.256,132.408 C310.941333,132.408 309.784,133.250667 309.784,134.936 C309.784,135.501333 309.885333,135.989333 310.088,136.4 C310.290667,136.810667 310.546667,137.112 310.856,137.304 C311.517333,137.709333 312.184,137.96 312.856,138.056 C313.570667,138.152 313.928,138.301333 313.928,138.504 C313.928,138.76 313.602667,138.888 312.952,138.888 C312.589333,138.888 312.184,138.757333 311.736,138.496 C311.288,138.234667 310.933333,138.104 310.672,138.104 C310.410667,138.104 310.221333,138.194667 310.104,138.376 C309.698667,138.941333 309.496,139.362667 309.496,139.64 C309.496,139.917333 309.597333,140.12 309.8,140.248 C310.749333,140.845333 311.738667,141.144 312.768,141.144 Z M318.912,141.016 C319.557333,141.016 319.96,140.861333 320.12,140.552 C320.216,140.381333 320.272,140.234667 320.288,140.112 C320.304,139.989333 320.312,139.8 320.312,139.544 L320.312,139.48 C320.312,138.914667 320.221333,138.541333 320.04,138.36 C319.794667,138.136 319.349333,138.024 318.704,138.024 C318.058667,138.024 317.656,138.184 317.496,138.504 C317.410667,138.664 317.36,138.808 317.344,138.936 C317.328,139.064 317.32,139.250667 317.32,139.496 L317.32,139.56 C317.32,140.125333 317.424,140.509333 317.632,140.712 C317.84,140.914667 318.266667,141.016 318.912,141.016 Z" id="Combined-Shape" fill="#000000"></path>
            <g id="Floppy-Disk-Rev3" transform="translate(54.5, 48)">
                <g id="Combined-Shape" fill-rule="nonzero">
                    <use fill="#00122C" xlink:href="#path-1"></use>
                    <path stroke="#FFFFFF" stroke-width="10" d="M40.1799428,1 C43.4985886,1.01387756 45.630744,2.24750219 47.1791692,3.89171568 L56.882129,13.6575598 C57.4859898,14.2655585 57.9908973,14.9354727 58.3983541,15.6463643 C59.4082431,17.1655702 60,18.9918641 60,20.9578947 L60,59.4210526 C60,62.0622795 58.9341476,64.451945 57.2155704,66.1822987 C55.4846772,67.9250527 53.0926484,69 50.4522161,69 L4.54778394,69 C1.90735187,69 -0.484676966,67.9250528 -2.21557025,66.1822987 C-3.93414752,64.4519451 -5,62.0622795 -5,59.4210526 L-5,10.5789474 C-5,7.93772074 -3.93414759,5.54805516 -2.21557031,3.81770142 C-0.48467701,2.07494728 1.90735187,1 4.54778394,1 Z"></path>
                    <use stroke="#00122C" stroke-width="10" xlink:href="#path-1"></use>
                </g>
                <g id="Group-5" transform="translate(2.3711, 32.4539)">
                    <polygon id="Rectangle" fill="#FF008E" transform="translate(42.6494, 14.5751) rotate(5) translate(-42.6494, -14.5751)" points="36.1494161 1.575105 49.1494161 1.575105 49.1494161 27.575105 36.1494161 27.575105"></polygon>
                    <polygon id="Rectangle" fill="#0095FF" transform="translate(30.6515, 14.0273) rotate(5) translate(-30.6515, -14.0273)" points="25.1515019 0.527333439 36.1515019 0.527333439 36.1515019 27.5273334 25.1515019 27.5273334"></polygon>
                    <polygon id="Rectangle" fill="#5FFF56" transform="translate(19.6062, 14.0648) rotate(5) translate(-19.6062, -14.0648)" points="14.1062044 0.564814967 25.1062044 0.564814967 25.1062044 27.564815 14.1062044 27.564815"></polygon>
                    <polygon id="Rectangle" fill="#FF1843" transform="translate(7.6083, 13.517) rotate(5) translate(-7.6083, -13.517)" points="1.10829019 0.517043403 14.1082902 0.517043403 14.1082902 26.5170434 1.10829019 26.5170434"></polygon>
                </g>
                <path d="M43.090287,29.5 C46.73507,29.5 47.9864841,30.0562317 49.3001086,30.7587658 C50.999154,31.6674252 52.3325748,33.000846 53.2412342,34.6998914 C53.9437683,36.0135159 54.5,37.26493 54.5,40.909713 L54.5,52.090287 C54.5,55.73507 53.9437683,56.9864841 53.2412342,58.3001086 C52.3325748,59.999154 50.999154,61.3325748 49.3001086,62.2412342 C47.9864841,62.9437683 46.73507,63.5 43.090287,63.5 L11.909713,63.5 C8.26493003,63.5 7.01351593,62.9437683 5.69989145,62.2412342 C4.00084601,61.3325748 2.66742521,59.999154 1.75876577,58.3001086 C1.05623171,56.9864841 0.5,55.73507 0.5,52.090287 L0.5,40.909713 C0.5,37.26493 1.05623171,36.0135159 1.75876577,34.6998914 C2.66742521,33.000846 4.00084601,31.6674252 5.69989145,30.7587658 C7.01351593,30.0562317 8.26493003,29.5 11.909713,29.5 Z" id="Rectangle" stroke="#00122C" stroke-width="10"></path>
                <path d="M40,19 C40,21.7614237 37.7614237,24 35,24 L11,24 C8.23857625,24 6,21.7614237 6,19 L6,0 L40,0 L40,19 Z" id="Combined-Shape" fill="#FFFFFF"></path>
                <rect id="Rectangle" fill="#00122C" fill-rule="nonzero" x="29" y="1" width="7" height="18" rx="3.5"></rect>
            </g>
        </g>
    </g>
</svg>